<?xml version="1.0" standalone="no"?>
<!DOCTYPE svg PUBLIC "-//W3C//DTD SVG 1.1//EN" "http://www.w3.org/Graphics/SVG/1.1/DTD/svg11.dtd" >
<svg xmlns="http://www.w3.org/2000/svg">
<metadata></metadata>
<defs>
<font id="geogrotesque_stencil_c_mdMd" horiz-adv-x="1126" >
<font-face units-per-em="2048" ascent="1536" descent="-512" />
<missing-glyph horiz-adv-x="434" />
<glyph unicode="&#xfb01;" horiz-adv-x="1161" d="M49 893v72q0 20 8.5 28t30.5 11l107 8h14v139q0 132 98.5 206.5t306.5 74.5h334q22 0 30.5 -8.5t8.5 -30.5v-86q0 -22 -9 -31.5t-30 -9.5h-334q-112 0 -161.5 -34.5t-49.5 -101.5v-118h574q22 0 30.5 -8.5t8.5 -30.5v-932q0 -22 -8 -31.5t-29 -9.5h-119q-21 0 -30 9.5 t-9 31.5v811h-733q-21 0 -30 9.5t-9 31.5zM209 41v715h194v-715q0 -22 -8 -31.5t-28 -9.5h-121q-20 0 -28.5 9.5t-8.5 31.5z" />
<glyph unicode="&#xfb02;" horiz-adv-x="1161" d="M49 893v72q0 20 8.5 28t30.5 11l107 8h14v139q0 132 98.5 206.5t306.5 74.5h363q22 0 30.5 -8.5t8.5 -30.5v-1352q0 -22 -8 -31.5t-29 -9.5h-119q-21 0 -30 9.5t-9 31.5v1225h-207q-112 0 -161.5 -34.5t-49.5 -101.5v-118h201q39 0 39 -37v-82q0 -41 -39 -41h-516 q-21 0 -30 9.5t-9 31.5zM209 41v715h194v-715q0 -22 -8 -31.5t-28 -9.5h-121q-20 0 -28.5 9.5t-8.5 31.5z" />
<glyph unicode="&#xfb03;" horiz-adv-x="1775" d="M49 893v72q0 20 8.5 28t30.5 11l107 8h14v147q0 132 98.5 206.5t306.5 74.5h15q22 0 30.5 -8.5t8.5 -30.5v-86q0 -22 -9 -31.5t-30 -9.5h-15q-112 0 -161.5 -34t-49.5 -101v-127h418v139q0 132 98.5 206.5t307.5 74.5h336q21 0 30 -9t9 -30v-86q0 -41 -39 -41h-336 q-112 0 -161.5 -34.5t-49.5 -101.5v-118h573q22 0 31.5 -9t9.5 -30v-932q0 -22 -8.5 -31.5t-28.5 -9.5h-120q-20 0 -28.5 9.5t-8.5 31.5v811h-1348q-21 0 -30 9.5t-9 31.5zM209 41v715h194v-715q0 -22 -8 -31.5t-28 -9.5h-121q-20 0 -28.5 9.5t-8.5 31.5zM821 41v715h195 v-715q0 -22 -8 -31.5t-29 -9.5h-119q-21 0 -30 9.5t-9 31.5z" />
<glyph unicode="&#xfb04;" horiz-adv-x="1775" d="M49 893v72q0 20 8.5 28t30.5 11l107 8h14v147q0 132 98.5 206.5t306.5 74.5h15q22 0 30.5 -8.5t8.5 -30.5v-86q0 -22 -9 -31.5t-30 -9.5h-15q-112 0 -161.5 -34t-49.5 -101v-127h418v139q0 132 98.5 206.5t307.5 74.5h362q22 0 31.5 -9t9.5 -30v-1352q0 -22 -8.5 -31.5 t-28.5 -9.5h-120q-20 0 -28.5 9.5t-8.5 31.5v1225h-209q-112 0 -161.5 -34.5t-49.5 -101.5v-118h201q22 0 31 -8.5t9 -28.5v-82q0 -22 -9 -31.5t-31 -9.5h-1129q-21 0 -30 9.5t-9 31.5zM209 41v715h194v-715q0 -22 -8 -31.5t-28 -9.5h-121q-20 0 -28.5 9.5t-8.5 31.5z M821 41v715h195v-715q0 -22 -8 -31.5t-29 -9.5h-119q-21 0 -30 9.5t-9 31.5z" />
<glyph horiz-adv-x="0" />
<glyph horiz-adv-x="682" />
<glyph unicode=" "  horiz-adv-x="434" />
<glyph unicode="&#x09;" horiz-adv-x="434" />
<glyph unicode="&#xa0;" horiz-adv-x="434" />
<glyph unicode="!" horiz-adv-x="540" d="M168 39v164q0 21 9 30t30 9h125q37 0 37 -39v-164q0 -22 -8.5 -30.5t-28.5 -8.5h-125q-22 0 -30.5 8.5t-8.5 30.5zM168 799v553q0 22 9 31.5t30 9.5h127q21 0 30 -9.5t9 -31.5v-553l-21 -410q-2 -21 -9.5 -30t-27.5 -9h-88q-21 0 -29 9t-10 30z" />
<glyph unicode="&#x22;" horiz-adv-x="802" d="M145 1352q-3 41 39 41h117q40 0 37 -41l-16 -342q0 -22 -8.5 -31.5t-28.5 -9.5h-84q-20 0 -28.5 9.5t-10.5 31.5zM465 1352q-3 41 39 41h117q39 0 36 -41l-16 -342q0 -22 -8.5 -31.5t-28.5 -9.5h-84q-21 0 -29 9t-10 32z" />
<glyph unicode="#" horiz-adv-x="1357" d="M156 453v65q0 37 39 37h63l-39 -141h-24q-39 0 -39 39zM246 786v66q0 20 9.5 28.5t31.5 8.5h67l-41 -141h-26q-41 0 -41 38zM262 236l236 833q10 41 47 41h88q37 0 26 -41l-235 -833q-12 -41 -47 -41h-88q-39 0 -27 41zM567 414l39 141h103l-41 -141h-101zM662 748 l38 141h103l-39 -141h-102zM711 236l235 833q10 41 47 41h88q38 0 27 -41l-236 -833q-12 -41 -47 -41h-88q-38 0 -26 41zM1014 414l43 141h16q39 0 39 -37v-65q0 -39 -39 -39h-59zM1110 748l39 141h14q39 0 39 -37v-66q0 -38 -39 -38h-53z" />
<glyph unicode="$" horiz-adv-x="1089" d="M156 418v51q0 37 37 37h106q37 0 37 -37v-43q0 -93 158 -109v-317h-54q-20 0 -28.5 9.5t-8.5 31.5v143q-126 22 -186.5 85.5t-60.5 148.5zM176 891v78q0 83 54.5 147t172.5 90v146q0 22 8.5 31.5t28.5 9.5h54v-318q-140 -15 -140 -106v-35q0 -36 26 -59.5t60 -34.5 l308 -107q87 -31 136.5 -82t49.5 -121v-112q0 -84 -61 -147t-185 -87v-143q0 -22 -8 -31.5t-29 -9.5h-59v317q160 16 160 109v55q0 35 -27 57.5t-80 41.5l-309 106q-60 22 -110 78t-50 127zM592 1075v318h59q21 0 29 -9.5t8 -31.5v-146q118 -25 175 -90.5t57 -146.5v-49 q0 -20 -8.5 -28.5t-28.5 -8.5h-109q-19 0 -27 8.5t-8 28.5v49q0 90 -147 106z" />
<glyph unicode="%" horiz-adv-x="1669" d="M156 985v213q0 190 245 207v-131q-84 -15 -84 -82v-201q0 -70 84 -82v-133q-245 14 -245 209zM424.5 14.5q-4.5 14.5 3.5 26.5l635 1311q18 41 55 41h101q18 0 23 -12t-3 -29l-637 -1311q-11 -23 -22.5 -32t-32.5 -9h-101q-17 0 -21.5 14.5zM500 776v133q84 12 84 82v201 q0 67 -84 82v131q245 -17 245 -207v-213q0 -195 -245 -209zM924 190v213q0 190 245 209v-133q-84 -15 -84 -80v-200q0 -72 84 -84v-131q-245 14 -245 206zM1268 -16v131q84 12 84 84v200q0 65 -84 80v133q245 -17 245 -209v-213q0 -192 -245 -206z" />
<glyph unicode="&#x26;" horiz-adv-x="1396" d="M156 291v207q0 89 41 147.5t141 87.5q-93 27 -129.5 80t-36.5 141v148q0 63 17.5 113t58.5 93.5t117.5 69t185.5 29.5v-166q-98 -7 -140 -50.5t-42 -121.5v-86q0 -89 53 -130.5t186 -41.5h672q21 0 30 -9t9 -30v-88q0 -21 -9 -30t-30 -9h-688q-132 0 -186 -42t-54 -130 v-149q0 -159 248 -174v-164q-124 4 -213 29.5t-138 68.5t-71 93.5t-22 113.5zM649 1241v166q379 -18 379 -311v-54q0 -20 -8.5 -29t-28.5 -9h-121q-20 0 -28 8.5t-8 29.5v27q0 78 -43.5 121.5t-141.5 50.5zM698 -14v164q248 15 248 174v225h195v-252q0 -63 -22.5 -115 t-72 -95.5t-138 -70t-210.5 -30.5z" />
<glyph unicode="'" horiz-adv-x="483" d="M145 1352q-3 41 39 41h117q40 0 37 -41l-16 -342q-2 -22 -9.5 -31.5t-27.5 -9.5h-84q-20 0 -28.5 9.5t-10.5 31.5z" />
<glyph unicode="(" horiz-adv-x="727" d="M156 -166v1335q0 132 98.5 206.5t306.5 74.5h17q20 0 29 -9t9 -30v-86q0 -41 -38 -41h-17q-111 0 -158 -33.5t-47 -101.5v-1294q0 -68 47 -102t158 -34h17q38 0 38 -41v-86q0 -21 -8.5 -29.5t-29.5 -8.5h-17q-209 0 -307 74t-98 206z" />
<glyph unicode=")" horiz-adv-x="727" d="M111 -322q0 22 9.5 31.5t31.5 9.5h14q111 0 158 34t47 102v1294q0 68 -47 101.5t-158 33.5h-14q-22 0 -31.5 9.5t-9.5 31.5v86q0 21 9.5 30t31.5 9h14q208 0 306.5 -74.5t98.5 -206.5v-1335q0 -132 -98 -206t-307 -74h-14q-22 0 -31.5 8.5t-9.5 29.5v86z" />
<glyph unicode="*" horiz-adv-x="1071" d="M169.5 915q3.5 12 23.5 21l223 113l-223 116q-35 15 -17 52l29 57q19 35 53 14l225 -145l-14 270q-1 21 8 30t31 9h61q40 0 37 -39l-14 -268l221 143q35 23 53 -14l29 -57q6 -12 7.5 -21t-4 -17t-19.5 -14l-224 -116l224 -113q21 -8 23.5 -21.5t-7.5 -31.5l-29 -58 q-17 -34 -53 -14l-219 141l12 -252q1 -23 -7.5 -32t-29.5 -9h-63q-40 0 -37 41l12 256l-223 -145q-34 -21 -53 16l-29 56q-10 20 -6.5 32z" />
<glyph unicode="+" horiz-adv-x="1169" d="M145 649v88q0 21 9 30t30 9h222v-166h-222q-39 0 -39 39zM504 293v801q0 22 8 31.5t29 9.5h84q21 0 30 -9.5t9 -31.5v-801q0 -21 -9 -30t-30 -9h-84q-21 0 -29 9t-8 30zM762 610v166h223q21 0 30 -9t9 -30v-88q0 -39 -39 -39h-223z" />
<glyph unicode="," horiz-adv-x="509" d="M51 -102q-14 37 25 49q55 22 76.5 51t21.5 74v131q0 39 37 39h123q21 0 29 -9t8 -30v-142q0 -206 -242 -272q-21 -5 -31.5 0t-17.5 25z" />
<glyph unicode="-" horiz-adv-x="917" d="M145 549v86q0 37 39 37h549q39 0 39 -37v-86q0 -37 -39 -37h-549q-39 0 -39 37z" />
<glyph unicode="." horiz-adv-x="477" d="M139 39v164q0 21 9 30t30 9h123q37 0 37 -39v-164q0 -22 -8.5 -30.5t-28.5 -8.5h-123q-22 0 -30.5 8.5t-8.5 30.5z" />
<glyph unicode="/" horiz-adv-x="753" d="M59 -262l428 1653q9 41 45 41h132q39 0 30 -41l-428 -1653q-8 -41 -45 -41h-133q-38 0 -29 41z" />
<glyph unicode="0" d="M119 299v795q0 63 20 114.5t63.5 95.5t122.5 71t189 32v-170q-195 -14 -195 -176v-729q0 -80 46 -124.5t149 -53.5v-168q-88 4 -157 22t-113 47t-73 68.5t-40.5 82.5t-11.5 93zM612 -14v168q103 9 150 53.5t47 124.5v729q0 162 -197 176v170q109 -5 188.5 -32t124 -71 t65 -96t20.5 -114v-795q0 -63 -20.5 -115t-65 -96t-124 -71t-188.5 -31z" />
<glyph unicode="1" d="M143 39v94q0 21 8.5 29t30.5 8h807q21 0 30 -8t9 -29v-94q0 -21 -9 -30t-30 -9h-807q-22 0 -30.5 8.5t-8.5 30.5zM143 1157v100q0 40 39 46l469 100q15 2 26 -5.5t11 -31.5v-1104h-201v920l-305 -58q-39 -6 -39 33z" />
<glyph unicode="2" d="M131 975v119q0 295 387 313v-168q-102 -7 -147 -52t-45 -124v-88q0 -22 -8.5 -31.5t-28.5 -9.5h-119q-21 0 -30 9.5t-9 31.5zM154 39v131h823q21 0 30 -8t9 -29v-94q0 -21 -9 -30t-30 -9h-784q-21 0 -30 9t-9 30zM154 262v168q0 43 14.5 75.5t42 54t47.5 32t51 22.5 l398 148q104 37 104 133v168q0 162 -195 176v168q109 -5 188 -32t122.5 -71t63.5 -96t20 -114v-197q0 -64 -18.5 -115t-50 -83t-60 -50.5t-60.5 -30.5l-348 -124q-25 -9 -41 -16.5t-36.5 -22t-31 -37t-10.5 -51.5v-105h-200z" />
<glyph unicode="3" d="M115 297v53q0 39 37 39h118q21 0 30 -9t9 -30v-26q0 -79 47 -122t150 -52v-164q-391 15 -391 311zM123 1042v54q0 64 17.5 115t59 95.5t119 70.5t187.5 30v-166q-101 -7 -145 -50.5t-44 -121.5v-27q0 -21 -8 -29.5t-28 -8.5h-121q-20 0 -28.5 9t-8.5 29zM346 684v88 q0 21 9.5 30t31.5 9h156q133 0 186 41.5t53 130.5v86q0 77 -41 120t-137 52v166q108 -5 183.5 -31t116 -69t58 -93t17.5 -112v-148q0 -89 -36 -142t-130 -79q101 -29 141.5 -87t40.5 -148v-207q0 -292 -391 -305v164q195 17 195 174v149q0 89 -53.5 130.5t-186.5 41.5h-172 q-22 0 -31.5 9t-9.5 30z" />
<glyph unicode="4" d="M84 453v92q0 12 4 28l266 779q12 41 47 41h125q42 0 29 -41l-264 -768h383v-170h-551q-21 0 -30 9t-9 30zM772 41v1311q0 22 9 31.5t30 9.5h125q20 0 28.5 -9.5t8.5 -31.5v-1311q0 -22 -8.5 -31.5t-28.5 -9.5h-125q-21 0 -30 9.5t-9 31.5z" />
<glyph unicode="5" d="M131 295v53q0 22 8.5 31.5t28.5 9.5h121q20 0 28.5 -9.5t8.5 -31.5v-24q0 -80 44 -125t146 -52v-163q-385 15 -385 311zM174 745v125h387q222 0 330 -81t108 -216v-278q0 -296 -385 -311v163q99 9 142 53t43 124v221q0 73 -57 116.5t-183 43.5h-348q-20 0 -28.5 9 t-8.5 31zM174 963v389q0 22 8.5 31.5t28.5 9.5h711q22 0 30.5 -8.5t8.5 -30.5v-92q0 -22 -8.5 -30.5t-30.5 -8.5h-547v-260h-201z" />
<glyph unicode="6" d="M131 299v803q0 58 18.5 107.5t60 93.5t119.5 71.5t187 32.5v-166q-101 -9 -143.5 -51.5t-42.5 -116.5v-747q0 -80 42 -123.5t144 -52.5v-164q-385 18 -385 313zM428 653v164q74 23 164 23q113 0 195.5 -25t128.5 -70.5t67 -100t21 -120.5v-225q0 -64 -19.5 -116 t-62 -96.5t-121 -70.5t-187.5 -30v164q103 9 147 52t44 124v170q0 89 -54.5 133.5t-185.5 44.5q-86 0 -137 -21zM614 1241v166q86 -4 152.5 -23.5t107.5 -48.5t67 -68.5t36 -79t10 -85.5v-45q0 -39 -37 -39h-121q-20 0 -28 9t-8 30v16q0 152 -179 168z" />
<glyph unicode="7" d="M98 1262v92q0 21 9 30t30 9h860q22 0 31.5 -9t9.5 -30v-131h-901q-21 0 -30 9t-9 30zM295 41l485 1089h215l-479 -1089q-14 -41 -49 -41h-145q-47 0 -27 41z" />
<glyph unicode="8" d="M129 299v205q0 175 188 229q-91 28 -130.5 85t-39.5 143v133q0 51 9 92.5t34 81.5t65.5 68.5t106 47.5t152.5 23v-166q-97 -7 -134.5 -50t-37.5 -124v-76q0 -91 47 -134.5t174 -43.5t174 43.5t47 134.5v76q0 80 -38.5 123.5t-133.5 50.5v166q86 -4 151.5 -23t106 -47.5 t65.5 -68.5t34.5 -81.5t9.5 -92.5v-133q0 -87 -39 -143.5t-133 -84.5q190 -53 190 -229v-205q0 -298 -385 -313v164q102 9 145.5 52t43.5 124v147q0 89 -53.5 132.5t-184.5 43.5t-183 -43t-52 -133v-147q0 -82 42 -124.5t144 -51.5v-164q-385 18 -385 313z" />
<glyph unicode="9" d="M125 868v226q0 63 19 114.5t61 96t120 71.5t187 31v-166q-102 -7 -146 -51t-44 -123v-170q0 -89 54 -133.5t185 -44.5q82 0 137 18v-159q-67 -25 -163 -25q-113 0 -195 25t-127.5 70t-66.5 99.5t-21 120.5zM139 291v45q0 21 9 30t30 9h119q37 0 37 -39v-17 q0 -73 40.5 -115.5t137.5 -51.5v-166q-86 4 -152 23.5t-107 48.5t-67.5 68t-36.5 79t-10 86zM610 -14v164q101 7 144 50.5t43 118.5v748q0 79 -43 123t-144 51v166q385 -18 385 -313v-803q0 -59 -18.5 -108.5t-60.5 -93.5t-120 -71t-186 -32z" />
<glyph unicode=":" horiz-adv-x="477" d="M139 39v164q0 21 9 30t30 9h123q37 0 37 -39v-164q0 -22 -8.5 -30.5t-28.5 -8.5h-123q-22 0 -30.5 8.5t-8.5 30.5zM139 811v164q0 22 9 31.5t30 9.5h123q20 0 28.5 -9.5t8.5 -31.5v-164q0 -39 -37 -39h-123q-21 0 -30 9t-9 30z" />
<glyph unicode=";" horiz-adv-x="569" d="M111 -102q-14 38 24 49q55 22 75.5 51t20.5 74v131q0 39 39 39h123q21 0 29 -9t8 -30v-142q0 -206 -242 -272q-21 -5 -32 0t-17 25zM231 811v164q0 41 39 41h123q21 0 29 -9.5t8 -31.5v-164q0 -21 -8 -30t-29 -9h-123q-39 0 -39 39z" />
<glyph unicode="&#x3c;" horiz-adv-x="1089" d="M145 627v135q0 18 8.5 27t26.5 16l725 321q39 14 39 -36v-115q0 -19 -9 -27.5t-30 -15.5zM229 565l220 80l456 -184q21 -9 30 -17.5t9 -27.5v-115q0 -23 -10 -33.5t-29 -1.5z" />
<glyph unicode="=" horiz-adv-x="1198" d="M145 432v88q0 37 39 37h830q39 0 39 -37v-88q0 -21 -9 -30t-30 -9h-830q-21 0 -30 9t-9 30zM145 821v88q0 37 39 37h830q39 0 39 -37v-88q0 -21 -9 -30t-30 -9h-830q-21 0 -30 9t-9 30z" />
<glyph unicode="&#x3e;" horiz-adv-x="1089" d="M145 299v119q0 20 8.5 28t30.5 17l459 182l217 -82l-676 -301q-18 -7 -28.5 3.5t-10.5 33.5zM145 973v119q0 22 10.5 32.5t28.5 3.5l725 -321q18 -7 26.5 -16t8.5 -27v-139l-760 303q-39 12 -39 45z" />
<glyph unicode="?" horiz-adv-x="1159" d="M133 975v119q0 63 20 114.5t63.5 95.5t122.5 71t189 32v-168q-200 -14 -200 -176v-88q0 -22 -8 -31.5t-29 -9.5h-119q-39 0 -39 41zM440 39v164q0 21 9 30t30 9h125q37 0 37 -39v-164q0 -22 -8.5 -30.5t-28.5 -8.5h-125q-22 0 -30.5 8.5t-8.5 30.5zM440 389v152 q0 42 11.5 74.5t35.5 55t40.5 34t45.5 26.5l162 84q92 47 92 143v105q0 162 -200 176v168q211 -10 305 -96t94 -217v-129q0 -205 -178 -289l-113 -53q-46 -22 -70 -50.5t-24 -80.5v-103q0 -22 -8.5 -30.5t-28.5 -8.5h-125q-22 0 -30.5 8.5t-8.5 30.5z" />
<glyph unicode="@" horiz-adv-x="1832" d="M168 131v768q0 66 15 119t60.5 106.5t120.5 90.5t202.5 61t299.5 27v-160q-151 -4 -253 -23t-157 -53t-77.5 -76t-22.5 -100v-752q0 -58 22.5 -100t77.5 -76t157 -53t253 -23v-161q-172 3 -299.5 27.5t-202.5 61t-120.5 90.5t-60.5 107t-15 119zM518 299q0 27 2 47 l31 313q26 279 283 279q97 0 190 -51l-20 -150q-52 27 -115 27q-138 0 -154 -141l-24 -246v-19q0 -49 31.5 -78.5t99.5 -29.5q65 0 127 26q0 -86 37 -141q-107 -67 -242 -67q-246 0 -246 231zM965 -113h319q41 0 41 -39v-84q0 -38 -41 -38h-319v161zM965 1143v160 q172 -3 299.5 -27t203 -61t121 -90.5t61 -106.5t15.5 -119v-537q0 -294 -315 -294q-76 0 -134 22t-90.5 59t-48.5 79.5t-16 88.5q0 21 2 31l59 535q3 39 41 39h109q21 0 29 -9t6 -30l-50 -484q-5 -56 1 -95t31.5 -65t72.5 -26q64 0 89.5 47t25.5 129v502q0 58 -22.5 100.5 t-78.5 76.5t-158 52.5t-253 22.5z" />
<glyph unicode="A" horiz-adv-x="1101" d="M41 39l397 1315q12 39 49 39h127q38 0 50 -39l397 -1315q3 -9 3 -15q0 -24 -34 -24h-129q-33 0 -45 39l-96 317h-332l45 160h244l-115 373q-10 32 -24 107.5t-22 135.5l-9 60q-1 -3 -10.5 -63t-23 -129.5t-24.5 -106.5l-256 -854q-12 -39 -45 -39h-118q-32 0 -32 23 q0 7 3 16z" />
<glyph unicode="B" horiz-adv-x="1202" d="M168 41v1311q0 22 8.5 31.5t28.5 9.5h164v-1393h-164q-20 0 -28.5 9.5t-8.5 31.5zM467 0v166h160q266 0 266 176v125q0 79 -66 124.5t-200 45.5h-160v156h115q126 0 189 46t63 132v94q0 84 -64.5 123t-202.5 39h-100v166h100q465 0 465 -297v-129q0 -170 -172 -236 q232 -64 232 -250v-174q0 -66 -24 -119.5t-76 -96.5t-144.5 -67t-220.5 -24h-160z" />
<glyph unicode="C" horiz-adv-x="1144" d="M145 299v795q0 63 20 114.5t64 95.5t125.5 71t194.5 32v-170q-203 -17 -203 -176v-729q0 -161 203 -178v-168q-113 4 -194.5 30.5t-125.5 71t-64 96t-20 115.5zM647 -14v168q209 17 209 178v96q0 39 37 39h121q37 0 37 -39v-129q0 -63 -20.5 -115t-65.5 -96.5t-126 -71 t-192 -30.5zM647 1237v170q111 -5 192 -32t126 -71t65.5 -96t20.5 -114v-101q0 -22 -8.5 -31.5t-28.5 -9.5h-121q-20 0 -28.5 9.5t-8.5 31.5v68q0 77 -51.5 123t-157.5 53z" />
<glyph unicode="D" horiz-adv-x="1245" d="M168 41v1311q0 22 8.5 31.5t28.5 9.5h164v-1393h-168q-33 0 -33 41zM467 0v170h166q266 0 266 178v696q0 86 -65.5 132.5t-200.5 46.5h-166v170h166q127 0 220.5 -25t146 -70.5t76.5 -100t24 -120.5v-762q0 -66 -24 -120.5t-76.5 -99.5t-146 -70t-220.5 -25h-166z" />
<glyph unicode="E" horiz-adv-x="1062" d="M168 41v1311q0 22 8.5 31.5t28.5 9.5h164v-1393h-164q-20 0 -28.5 9.5t-8.5 31.5zM467 0v170h461q22 0 30.5 -8t8.5 -29v-94q0 -22 -8.5 -30.5t-30.5 -8.5h-461zM467 643v166h401q22 0 31.5 -9t9.5 -30v-88q0 -39 -41 -39h-401zM467 1223v170h438q21 0 30 -9t9 -30v-92 q0 -21 -9 -30t-30 -9h-438z" />
<glyph unicode="F" horiz-adv-x="1073" d="M168 41v1311q0 22 8.5 31.5t28.5 9.5h164v-1352q0 -22 -9 -31.5t-30 -9.5h-125q-20 0 -28.5 9.5t-8.5 31.5zM467 635v172h453q22 0 30 -8.5t8 -30.5v-94q0 -21 -8.5 -30t-29.5 -9h-453zM467 1223v170h489q21 0 30 -9t9 -30v-92q0 -21 -9 -30t-30 -9h-489z" />
<glyph unicode="G" horiz-adv-x="1173" d="M145 299v795q0 63 20 114.5t64 95.5t125.5 71t194.5 32v-170q-203 -17 -203 -176v-729q0 -161 203 -178v-168q-113 4 -194.5 30.5t-125.5 71t-64 96t-20 115.5zM571 565v94q0 20 9.5 28.5t31.5 8.5h400q39 0 39 -37v-360q0 -63 -20.5 -115t-65.5 -96.5t-126 -71 t-192 -30.5v168q209 18 209 176v196h-244q-22 0 -31.5 9t-9.5 30zM647 1237v170q111 -5 192 -32t126 -71t65.5 -96t20.5 -114v-90q0 -39 -37 -39h-121q-37 0 -37 39v57q0 77 -51.5 123t-157.5 53z" />
<glyph unicode="H" horiz-adv-x="1265" d="M168 41v1311q0 22 8.5 31.5t28.5 9.5h125q21 0 30 -9.5t9 -31.5v-1311q0 -22 -9 -31.5t-30 -9.5h-125q-20 0 -28.5 9.5t-8.5 31.5zM467 643v170h432v539q0 22 9 31.5t30 9.5h125q20 0 28.5 -9.5t8.5 -31.5v-1311q0 -22 -8.5 -31.5t-28.5 -9.5h-125q-21 0 -30 9.5t-9 31.5 v602h-432z" />
<glyph unicode="I" horiz-adv-x="534" d="M168 41v1311q0 22 8.5 31.5t28.5 9.5h125q21 0 30 -9.5t9 -31.5v-1311q0 -22 -9 -31.5t-30 -9.5h-125q-20 0 -28.5 9.5t-8.5 31.5z" />
<glyph unicode="J" horiz-adv-x="1032" d="M49 299v104q0 41 39 41h123q20 0 28.5 -9.5t8.5 -31.5v-71q0 -79 38 -123.5t128 -54.5v-168q-102 5 -175.5 32t-113.5 71t-58 95.5t-18 114.5zM512 -14v168q89 9 126.5 53.5t37.5 124.5v1020q0 22 9 31.5t30 9.5h125q20 0 28.5 -9.5t8.5 -31.5v-1053q0 -298 -365 -313z " />
<glyph unicode="K" horiz-adv-x="1155" d="M168 39v1315q0 39 37 39h125q21 0 30 -9t9 -30v-1315q0 -21 -9 -30t-30 -9h-125q-37 0 -37 39zM463 618v150l383 586q27 39 63 39h135q20 0 25 -12t-6 -27l-430 -647l485 -668q8 -9 8 -18q0 -4 -2 -8q-5 -13 -24 -13h-162q-32 0 -59 39z" />
<glyph unicode="L" horiz-adv-x="993" d="M168 41v1311q0 22 8.5 31.5t28.5 9.5h125q21 0 30 -9.5t9 -31.5v-1352h-168q-33 0 -33 41zM467 0v170h424q22 0 31.5 -8t9.5 -29v-94q0 -21 -9.5 -30t-31.5 -9h-424z" />
<glyph unicode="M" horiz-adv-x="1503" d="M168 39v1315q0 39 37 39h151v-1360q0 -33 -37 -33h-114q-37 0 -37 39zM455 727v453l254 -633q7 -17 17.5 -47t17.5 -52.5t8 -23.5q0 8 45 121l247 631v-443l-188 -481q-15 -41 -51 -41h-107q-33 0 -49 41zM1143 39v1354h157q37 0 37 -39v-1315q0 -39 -37 -39h-120 q-37 0 -37 39z" />
<glyph unicode="N" horiz-adv-x="1265" d="M168 39v1315q0 39 37 39h151v-1354q0 -39 -37 -39h-114q-37 0 -37 39zM455 829v400l356 -666v-399zM909 0v1354q0 39 39 39h113q21 0 29 -9t8 -30v-1315q0 -21 -8 -30t-29 -9h-152z" />
<glyph unicode="O" horiz-adv-x="1222" d="M145 299v795q0 62 21.5 114t68.5 96t130 71t196 32v-170q-108 -7 -161.5 -53t-53.5 -123v-729q0 -160 215 -178v-168q-113 4 -196 31t-130 70.5t-68.5 96t-21.5 115.5zM659 -14v168q218 18 218 178v729q0 76 -55.5 122.5t-162.5 53.5v170q218 -10 318 -96t100 -217v-795 q0 -63 -22 -115.5t-69.5 -96t-130.5 -70.5t-196 -31z" />
<glyph unicode="P" horiz-adv-x="1171" d="M168 41v1311q0 22 8.5 31.5t28.5 9.5h164v-1352q0 -22 -9 -31.5t-30 -9.5h-125q-20 0 -28.5 9.5t-8.5 31.5zM467 518v170h154q266 0 266 178v178q0 86 -65.5 132.5t-200.5 46.5h-154v170h154q103 0 183.5 -17t132.5 -45.5t86 -69.5t48 -86t14 -98v-243q0 -53 -14 -98 t-48 -86t-86 -69.5t-132.5 -45.5t-183.5 -17h-154z" />
<glyph unicode="Q" horiz-adv-x="1220" d="M145 299v795q0 62 21.5 114t68.5 96t130 71t196 32v-166q-108 -7 -161.5 -53t-53.5 -123v-737q0 -160 215 -178v-164q-113 4 -196 31t-130 70.5t-68.5 96t-21.5 115.5zM659 -14v164q218 18 218 178v737q0 76 -55.5 122.5t-162.5 53.5v166q218 -10 318 -96t100 -217v-795 q0 -99 -56 -174t-177 -111l203 -254q11 -16 11 -30q0 -16 -16 -29l-69 -53q-12 -11 -28 -11h-3q-18 1 -29 17z" />
<glyph unicode="R" horiz-adv-x="1216" d="M168 41v1311q0 22 8.5 31.5t28.5 9.5h164v-1352q0 -22 -9 -31.5t-30 -9.5h-125q-20 0 -28.5 9.5t-8.5 31.5zM467 551v170h154q266 0 266 178v145q0 86 -65.5 132.5t-200.5 46.5h-154v170h154q103 0 183.5 -17t132.5 -45.5t86 -69.5t48 -86t14 -98v-213q0 -99 -57 -174.5 t-182 -111.5l246 -537q3 -7 3 -13q-1 -8 -7 -16q-10 -12 -31 -12h-127q-7 0 -12 2t-8.5 4t-7.5 7.5t-5.5 7.5t-5 10t-4.5 10l-230 510h-190z" />
<glyph unicode="S" horiz-adv-x="1163" d="M127 299v119q0 22 8.5 31.5t28.5 9.5h121q21 0 29 -9.5t8 -31.5v-94q0 -160 217 -174v-164q-113 4 -195.5 30.5t-128.5 71t-67 96.5t-21 115zM147 981v113q0 295 392 313v-166q-197 -14 -197 -172v-43q0 -54 31.5 -88t72.5 -49l375 -141q100 -37 163 -107.5t63 -171.5 v-170q0 -63 -21 -115t-66.5 -96t-127.5 -71t-195 -31v164q211 17 211 174v100q0 104 -172 168l-346 131q-74 28 -128.5 99t-54.5 159zM637 1241v166q110 -4 190 -30t123.5 -70.5t63.5 -97t20 -115.5v-90q0 -39 -39 -39h-121q-20 0 -28 9t-8 30v65q0 161 -201 172z" />
<glyph unicode="T" horiz-adv-x="997" d="M31 1262v92q0 21 9 30t30 9h856q22 0 30.5 -8.5t8.5 -30.5v-92q0 -22 -8.5 -30.5t-30.5 -8.5h-856q-21 0 -30 9t-9 30zM397 41v1089h201v-1089q0 -22 -8 -31.5t-29 -9.5h-125q-39 0 -39 41z" />
<glyph unicode="U" horiz-adv-x="1245" d="M156 299v1053q0 22 9 31.5t30 9.5h124q20 0 28.5 -9.5t8.5 -31.5v-1020q0 -160 215 -178v-168q-113 4 -195.5 31t-129 70.5t-68.5 96t-22 115.5zM670 -14v168q217 18 217 178v1020q0 41 39 41h125q21 0 28.5 -9t7.5 -32v-1053q0 -63 -22 -115.5t-68.5 -96t-130 -70.5 t-196.5 -31z" />
<glyph unicode="V" horiz-adv-x="1101" d="M41 1354q-3 9 -3 16q0 23 32 23h137q36 0 45 -39l393 -1354h-158q-37 0 -49 39zM610 489l250 865q9 39 45 39h125q34 0 34 -24q0 -7 -3 -15l-356 -1190z" />
<glyph unicode="W" horiz-adv-x="1673" d="M39 1354q-2 7 -2 13q0 26 33 26h127q38 0 47 -39l338 -1354h-164q-36 0 -45 39zM545 553l196 801q9 39 45 39h117q38 0 47 -39l338 -1354h-160q-36 0 -45 39l-219 868q-16 68 -26 160q-13 -88 -29 -162l-174 -727zM1249 563l199 791q9 39 45 39h111q30 0 30 -25 q0 -6 -2 -14l-291 -1166z" />
<glyph unicode="X" horiz-adv-x="1148" d="M68 14q-1 4 -1 9q0 10 7 22l323 569l107 -178l-221 -397q-19 -39 -56 -39h-135q-20 0 -24 14zM78 1380q4 13 24 13h146q33 0 57 -39l770 -1315q7 -10 7 -19q0 -4 -2 -8q-4 -12 -25 -12h-146q-34 0 -57 39l-766 1311q-9 13 -9 24q0 3 1 6zM639 981l209 373q20 39 55 39 h135q26 0 26 -17q0 -9 -7 -22l-318 -545z" />
<glyph unicode="Y" horiz-adv-x="1083" d="M36 1383q8 10 30 10h141q19 0 28 -8.5t19 -30.5l389 -832v-483q0 -39 -37 -39h-125q-21 0 -30 9t-9 30v477l-405 838q-5 10 -5 18q0 6 4 11zM598 846l250 508q6 13 10.5 19.5t14 13t22.5 6.5h123q32 0 32 -19q0 -8 -6 -20l-350 -703z" />
<glyph unicode="Z" horiz-adv-x="1024" d="M88 39v131h832q21 0 29.5 -8t8.5 -29v-94q0 -21 -9 -30t-29 -9h-791q-22 0 -31.5 9t-9.5 30zM125 1262v92q0 21 9 30t30 9h721q22 0 31.5 -9t9.5 -30v-131h-762q-21 0 -30 9t-9 30zM139 266l502 860h231l-503 -860h-230z" />
<glyph unicode="[" horiz-adv-x="774" d="M156 -170v1341h200v-1341h-200zM156 -262h456q21 0 30 -9t9 -30v-92q0 -21 -9 -30t-30 -9h-417q-39 0 -39 41v129zM156 1262v129q0 41 39 41h417q21 0 30 -9t9 -30v-93q0 -21 -9 -29.5t-30 -8.5h-456z" />
<glyph unicode="\" horiz-adv-x="753" d="M59 1391q-9 41 29 41h133q36 0 45 -41l428 -1653q9 -41 -30 -41h-132q-37 0 -45 41z" />
<glyph unicode="]" horiz-adv-x="774" d="M123 -301q0 21 9 30t30 9h456v-129q0 -41 -38 -41h-418q-21 0 -30 9t-9 30v92zM123 1300v93q0 21 9 30t30 9h418q38 0 38 -41v-129h-456q-21 0 -30 8.5t-9 29.5zM418 -170v1339h200v-1339h-200z" />
<glyph unicode="^" horiz-adv-x="1157" d="M147 631l322 725q7 19 16 28t27 9h137l-307 -762q-6 -16 -9.5 -22.5t-12 -12.5t-21.5 -6h-115q-23 0 -34.5 11t-2.5 30zM629 1073l80 223l301 -665q9 -19 -2.5 -30t-34.5 -11h-115q-19 0 -27.5 9.5t-17.5 31.5z" />
<glyph unicode="_" horiz-adv-x="907" d="M45 -201q0 37 39 37h739q39 0 39 -37v-88q0 -21 -9 -30t-30 -9h-739q-21 0 -30 9t-9 30v88z" />
<glyph unicode="`" horiz-adv-x="663" d="M156.5 1439q4.5 11 25.5 11h127q34 0 53 -37l121 -219q19 -37 -18 -37h-96q-30 0 -50 25l-155 229q-12 17 -7.5 28z" />
<glyph unicode="a" horiz-adv-x="1044" d="M113 231v99q0 107 75 177.5t209 70.5h224v-152h-191q-65 0 -96 -33.5t-31 -87.5v-43q0 -57 38 -87t108 -30q97 0 172 37v-149q-100 -49 -220 -49q-143 0 -215.5 70t-72.5 177zM135 725v31q0 134 91.5 205t297.5 71q208 0 297.5 -70.5t89.5 -205.5v-715q0 -41 -39 -41 h-114q-21 0 -30 9.5t-9 31.5v696q0 68 -44.5 104t-154.5 36q-112 0 -157.5 -33.5t-45.5 -100.5v-18q0 -22 -8 -31.5t-28 -9.5h-107q-21 0 -30 9.5t-9 31.5z" />
<glyph unicode="b" horiz-adv-x="1087" d="M145 41v1350q0 22 8.5 31.5t28.5 9.5h121q20 0 28.5 -9.5t8.5 -31.5v-1350q0 -22 -8.5 -31.5t-28.5 -9.5h-121q-20 0 -28.5 9.5t-8.5 31.5zM438 37v160q79 -39 178 -39q154 0 154 133v434q0 133 -154 133q-94 0 -178 -41v164q111 51 236 51q146 0 218.5 -73.5 t72.5 -204.5v-492q0 -131 -72.5 -204.5t-218.5 -73.5q-135 0 -236 53z" />
<glyph unicode="c" horiz-adv-x="993" d="M123 264v488q0 264 344 278v-160q-81 -7 -115.5 -40t-34.5 -93v-458q0 -61 34 -94t116 -42v-157q-344 14 -344 278zM565 -14v157q85 7 120.5 40.5t35.5 95.5v40q0 39 39 39h110q39 0 39 -39v-55q0 -261 -344 -278zM565 870v160q344 -17 344 -278v-37q0 -21 -9 -30t-30 -9 h-110q-21 0 -30 9t-9 30v22q0 60 -36 93.5t-120 39.5z" />
<glyph unicode="d" horiz-adv-x="1087" d="M123 262v492q0 131 72.5 204.5t218.5 73.5q118 0 235 -55v-160q-90 41 -178 41q-154 0 -154 -133v-434q0 -133 154 -133q100 0 178 41v-164q-104 -51 -235 -51q-146 0 -218.5 73.5t-72.5 204.5zM748 41v1350q0 22 8.5 31.5t29.5 9.5h119q20 0 28.5 -9.5t8.5 -31.5v-1350 q0 -22 -8.5 -31.5t-28.5 -9.5h-119q-21 0 -29.5 9.5t-8.5 31.5z" />
<glyph unicode="e" horiz-adv-x="1013" d="M123 264v488q0 280 395 280q207 0 298 -73t91 -207v-250q0 -37 -37 -37h-458v145h311v133q0 66 -47 102t-158 36t-158 -36t-47 -102v-469q0 -67 46.5 -102t158.5 -35t158.5 35t46.5 102v25q0 39 39 39h100q21 0 30 -9t9 -30v-35q0 -135 -88.5 -207.5t-294.5 -72.5 q-395 0 -395 280z" />
<glyph unicode="f" horiz-adv-x="681" d="M49 893v72q0 20 8.5 28t30.5 11l107 8h14v157q0 132 98.5 206.5t306.5 74.5h15q22 0 30.5 -8.5t8.5 -30.5v-86q0 -22 -9 -31.5t-30 -9.5h-15q-112 0 -161.5 -34t-49.5 -101v-137h201q39 0 39 -37v-82q0 -41 -39 -41h-516q-21 0 -30 9.5t-9 31.5zM209 41v719h194v-719 q0 -22 -8 -31.5t-28 -9.5h-121q-20 0 -28.5 9.5t-8.5 31.5z" />
<glyph unicode="g" horiz-adv-x="1087" d="M123 262v492q0 131 72.5 204.5t218.5 73.5q130 0 235 -55v-160q-90 41 -178 41q-154 0 -154 -133v-434q0 -133 154 -133q92 0 178 39v-160q-113 -53 -235 -53q-146 0 -218.5 73.5t-72.5 204.5zM215 -293q0 39 39 39h283q112 0 161.5 35t49.5 102v1092q0 22 8.5 31.5 t29.5 9.5h119q20 0 28.5 -9.5t8.5 -31.5v-1112q0 -132 -98.5 -206.5t-306.5 -74.5h-283q-21 0 -30 9t-9 30v86z" />
<glyph unicode="h" horiz-adv-x="1097" d="M145 41v1350q0 22 8.5 31.5t28.5 9.5h121q20 0 28.5 -9.5t8.5 -31.5v-1350q0 -22 -8.5 -31.5t-28.5 -9.5h-121q-20 0 -28.5 9.5t-8.5 31.5zM438 817v164q111 51 238 51q137 0 213 -72.5t76 -189.5v-729q0 -22 -9 -31.5t-30 -9.5h-117q-39 0 -39 41v682q0 135 -152 135 q-99 0 -180 -41z" />
<glyph unicode="i" horiz-adv-x="485" d="M145 41v934q0 22 8.5 31.5t28.5 9.5h121q20 0 28.5 -9.5t8.5 -31.5v-934q0 -22 -8.5 -31.5t-28.5 -9.5h-121q-20 0 -28.5 9.5t-8.5 31.5zM145 1206v185q0 22 8.5 31.5t28.5 9.5h121q20 0 28.5 -9.5t8.5 -31.5v-185q0 -39 -37 -39h-121q-37 0 -37 39z" />
<glyph unicode="j" horiz-adv-x="485" d="M-121 -293q0 39 39 39h16q112 0 161.5 35t49.5 102v1092q0 22 8 31.5t29 9.5h119q21 0 30 -9.5t9 -31.5v-1112q0 -132 -98.5 -206.5t-307.5 -74.5h-16q-21 0 -30 9t-9 30v86zM145 1206v185q0 22 8.5 31.5t28.5 9.5h121q20 0 28.5 -9.5t8.5 -31.5v-185q0 -39 -37 -39h-121 q-37 0 -37 39z" />
<glyph unicode="k" horiz-adv-x="970" d="M145 39v1354q0 39 37 39h121q37 0 37 -39v-1354q0 -39 -37 -39h-121q-37 0 -37 39zM438 496v147l269 334q35 39 63 39h129q21 0 26.5 -13t-7.5 -28l-324 -400l362 -536q7 -9 7 -18q1 -4 -1 -8q-4 -13 -24 -13h-131q-32 0 -59 39z" />
<glyph unicode="l" horiz-adv-x="485" d="M145 41v1350q0 22 8.5 31.5t28.5 9.5h121q20 0 28.5 -9.5t8.5 -31.5v-1350q0 -22 -8.5 -31.5t-28.5 -9.5h-121q-20 0 -28.5 9.5t-8.5 31.5z" />
<glyph unicode="m" horiz-adv-x="1699" d="M145 41v936q0 39 37 39h119q21 0 30 -9t9 -30v-936q0 -22 -8.5 -31.5t-28.5 -9.5h-121q-20 0 -28.5 9.5t-8.5 31.5zM438 823v160q90 49 226 49q55 0 105 -15t91.5 -45t66.5 -82t25 -120v-729q0 -22 -9 -31.5t-30 -9.5h-116q-39 0 -39 41v682q0 135 -152 135 q-94 0 -168 -35zM1004 952q123 80 272 80q139 0 214 -72t75 -190v-729q0 -22 -8.5 -31.5t-28.5 -9.5h-119q-39 0 -39 41v682q0 66 -35 100.5t-116 34.5q-113 0 -183 -41v19q0 68 -32 116z" />
<glyph unicode="n" horiz-adv-x="1097" d="M145 41v936q0 39 37 39h119q21 0 30 -9t9 -30v-936q0 -22 -8.5 -31.5t-28.5 -9.5h-121q-20 0 -28.5 9.5t-8.5 31.5zM438 817v164q111 51 238 51q137 0 213 -72.5t76 -189.5v-729q0 -22 -9 -31.5t-30 -9.5h-117q-39 0 -39 41v682q0 135 -152 135q-99 0 -180 -41z" />
<glyph unicode="o" horiz-adv-x="1064" d="M123 264v488q0 124 88.5 197.5t271.5 80.5v-160q-166 -14 -166 -135v-454q0 -124 166 -138v-157q-183 7 -271.5 80t-88.5 198zM582 -14v157q166 14 166 138v454q0 121 -166 135v160q182 -9 271 -82t89 -196v-488q0 -124 -89 -197.5t-271 -80.5z" />
<glyph unicode="p" horiz-adv-x="1087" d="M145 -377v1352q0 22 8.5 31.5t28.5 9.5h119q21 0 30 -9.5t9 -31.5v-1352q0 -22 -8.5 -31.5t-28.5 -9.5h-121q-20 0 -28.5 9.5t-8.5 31.5zM438 33v162q81 -37 178 -37q154 0 154 133v434q0 133 -154 133q-94 0 -178 -41v160q105 55 236 55q146 0 218.5 -73.5t72.5 -204.5 v-492q0 -131 -72.5 -204.5t-218.5 -73.5q-136 0 -236 49z" />
<glyph unicode="q" horiz-adv-x="1087" d="M123 262v492q0 131 72.5 204.5t218.5 73.5q130 0 235 -55v-160q-90 41 -178 41q-154 0 -154 -133v-434q0 -133 154 -133q92 0 178 39v-160q-113 -53 -235 -53q-146 0 -218.5 73.5t-72.5 204.5zM748 -377v1352q0 22 8.5 31.5t29.5 9.5h119q20 0 28.5 -9.5t8.5 -31.5v-1352 q0 -22 -8.5 -31.5t-28.5 -9.5h-119q-21 0 -29.5 9.5t-8.5 31.5z" />
<glyph unicode="r" horiz-adv-x="729" d="M145 41v936q0 39 37 39h119q21 0 30 -9t9 -30v-936q0 -22 -8.5 -31.5t-28.5 -9.5h-121q-20 0 -28.5 9.5t-8.5 31.5zM438 795v170q98 65 219 65q39 0 39 -37v-96q0 -21 -9 -30t-30 -11q-131 -9 -219 -61z" />
<glyph unicode="s" horiz-adv-x="958" d="M98 229v52q0 19 8.5 27.5t28.5 8.5h107q20 0 28.5 -8.5t8.5 -27.5v-43q0 -93 157 -109v-143q-172 8 -255 76t-83 167zM119 702v78q0 99 75.5 169.5t241.5 80.5v-143q-139 -15 -139 -107v-35q0 -36 26 -59.5t60 -34.5l307 -106q87 -31 137 -82.5t50 -120.5v-113 q0 -63 -33.5 -114t-112.5 -87t-196 -42v143q159 16 159 109v55q0 35 -26.5 57t-79.5 41l-309 107q-60 22 -110 78t-50 126zM535 887v143q167 -7 247 -79t80 -171v-49q0 -20 -8.5 -28.5t-28.5 -8.5h-108q-19 0 -27 8.5t-8 28.5v49q0 91 -147 107z" />
<glyph unicode="t" horiz-adv-x="724" d="M43 893v72q0 19 9 27.5t30 11.5l100 8h15v207q0 22 8 31.5t28 9.5h121q20 0 28.5 -9.5t8.5 -31.5v-207h211q22 0 31.5 -8.5t9.5 -28.5v-82q0 -22 -9.5 -31.5t-31.5 -9.5h-520q-39 0 -39 41zM197 281v479h194v-459q0 -67 48 -101t159 -34h39q21 0 30 -9.5t9 -31.5v-86 q0 -22 -8.5 -30.5t-30.5 -8.5h-68q-107 0 -180 18t-114.5 55.5t-59.5 87.5t-18 120z" />
<glyph unicode="u" horiz-adv-x="1085" d="M133 244v731q0 41 39 41h117q21 0 30 -9.5t9 -31.5v-682q0 -67 35 -101t116 -34q97 0 168 35v-162q-96 -47 -225 -47q-138 0 -213.5 71.5t-75.5 188.5zM745 39v936q0 41 39 41h121q20 0 28.5 -9.5t8.5 -31.5v-936q0 -21 -9 -30t-30 -9h-119q-21 0 -30 9t-9 30z" />
<glyph unicode="v" horiz-adv-x="921" d="M31 975q-2 8 -2 14q0 11 6 17q10 10 31 10h124q33 0 46 -41l315 -975h-164q-19 0 -27 7.5t-14 29.5zM516 434l184 541q7 21 15.5 31t27.5 10h113q21 0 31 -10q6 -7 6 -17q0 -6 -2 -14l-283 -825z" />
<glyph unicode="w" horiz-adv-x="1394" d="M31 975q-2 7 -2 12q0 10 7 18q11 11 32 11h114q35 0 45 -41l258 -975h-159q-20 0 -28 8t-13 29zM471 449l141 526q10 41 45 41h119q33 0 43 -41l250 -975h-149q-19 0 -27.5 8.5t-13.5 28.5l-156 604l-21 102q-14 -69 -24 -102l-133 -471zM1051 475l137 500q10 41 43 41 h98q21 0 31 -10q6 -7 6 -17q0 -6 -2 -14l-236 -805z" />
<glyph unicode="x" horiz-adv-x="958" d="M42 12q-2 4 -2 8q0 9 7 19l256 387l94 -139l-159 -248q-26 -39 -56 -39h-114q-21 0 -26 12zM52 1004q6 12 26 12h131q32 0 57 -41l635 -936q7 -9 7 -17q0 -4 -2 -9q-5 -13 -25 -13h-131q-30 0 -56 39l-637 936q-7 11 -7 20q0 5 2 9zM553 745l147 230q25 41 58 41h116 q20 0 25 -12q2 -4 2 -8q0 -9 -8 -21l-246 -369z" />
<glyph unicode="y" horiz-adv-x="921" d="M31 975q-2 7 -2 14q0 10 6 17q10 10 31 10h120q32 0 45 -41l181 -547l-95 -287zM260 -379l440 1354q6 22 16 31.5t29 9.5h111q21 0 31 -10q6 -7 6 -17q0 -7 -2 -14l-463 -1354q-12 -39 -43 -39h-88q-38 0 -38 27q0 6 1 12z" />
<glyph unicode="z" horiz-adv-x="923" d="M84 39v121h719q21 0 30 -8t9 -29v-84q0 -21 -9 -30t-30 -9h-680q-21 0 -30 9t-9 30zM113 893v84q0 21 9 30t30 9h618q22 0 30.5 -8.5t8.5 -30.5v-123h-657q-39 0 -39 39zM137 252l389 510h228l-389 -510h-228z" />
<glyph unicode="{" horiz-adv-x="919" d="M113 467v84q0 22 9 31.5t30 9.5h2q103 0 148.5 34.5t45.5 102.5v440q0 132 98.5 206.5t307.5 74.5h14q22 0 30.5 -8.5t8.5 -30.5v-86q0 -22 -9 -31.5t-30 -9.5h-14q-111 0 -158 -33.5t-47 -101.5v-440q0 -155 -150 -199q150 -46 150 -201v-454q0 -68 47 -102t158 -34h14 q21 0 30 -9.5t9 -31.5v-86q0 -22 -8.5 -30t-30.5 -8h-14q-209 0 -307.5 74t-98.5 206v457q0 137 -194 137h-2q-22 0 -30.5 8.5t-8.5 30.5z" />
<glyph unicode="|" horiz-adv-x="534" d="M168 -391v1782q0 22 8.5 31.5t28.5 9.5h125q21 0 30 -9.5t9 -31.5v-1782q0 -22 -9 -31.5t-30 -9.5h-125q-20 0 -28.5 9.5t-8.5 31.5z" />
<glyph unicode="}" horiz-adv-x="919" d="M111 -322q0 22 9.5 31.5t31.5 9.5h14q111 0 158 34t47 102v454q0 155 149 201q-149 43 -149 199v440q0 68 -47 101.5t-158 33.5h-14q-22 0 -31.5 9.5t-9.5 31.5v86q0 21 9.5 30t31.5 9h14q208 0 306.5 -74.5t98.5 -206.5v-440q0 -68 46 -102.5t149 -34.5h2q39 0 39 -41 v-84q0 -21 -9 -30t-30 -9h-2q-195 0 -195 -137v-457q0 -132 -98 -206t-307 -74h-14q-22 0 -31.5 8.5t-9.5 29.5v86z" />
<glyph unicode="~" horiz-adv-x="1011" d="M145 473l7 74q7 90 52.5 134t106.5 44q46 0 99 -23l184 -86q63 -28 88 -28q8 0 14 1t10 5t6.5 7t4.5 11.5t3 14t2.5 18.5t2.5 21l2 14q3 21 12 28t29 7h63q21 0 28 -10.5t5 -34.5l-6 -74q-8 -93 -52 -136.5t-101 -43.5q-56 0 -115 26l-189 88q-52 23 -71 23 q-26 0 -33 -13.5t-12 -58.5l-2 -18q-1 -20 -11.5 -27.5t-31.5 -7.5h-62q-36 0 -33 45z" />
<glyph unicode="&#xa1;" horiz-adv-x="540" d="M166 217l20 410q2 21 9.5 30t27.5 9h88q21 0 29 -9t10 -30l21 -410v-553q0 -22 -9 -31.5t-30 -9.5h-127q-21 0 -30 9.5t-9 31.5v553zM170 813v164q0 22 8.5 30.5t28.5 8.5h125q22 0 30.5 -8.5t8.5 -30.5v-164q0 -21 -9 -30t-30 -9h-125q-37 0 -37 39z" />
<glyph unicode="&#xa2;" horiz-adv-x="1097" d="M156 453v487q0 225 254 268v144q0 22 8 31.5t28 9.5h54v-334q-81 -7 -115.5 -40t-34.5 -93v-459q0 -61 34 -93.5t116 -41.5v-332h-54q-20 0 -28 9.5t-8 31.5v141q-254 43 -254 271zM598 0v332q85 7 120.5 40t35.5 95v41q0 39 39 39h110q39 0 39 -39v-55q0 -219 -248 -269 v-143q0 -22 -8 -31.5t-29 -9.5h-59zM598 1059v334h59q21 0 29 -9.5t8 -31.5v-146q248 -46 248 -266v-37q0 -21 -9 -30t-30 -9h-110q-21 0 -30 9t-9 30v23q0 60 -36 93.5t-120 39.5z" />
<glyph unicode="&#xa3;" horiz-adv-x="1376" d="M156 39v88q0 21 9 30t30 9h118v352h201v-352h371q71 0 109 45.5t38 153.5v14q0 41 39 41h113q20 0 28.5 -9.5t8.5 -31.5v-14q0 -106 -20.5 -179t-60.5 -113t-89.5 -56.5t-116.5 -16.5h-739q-21 0 -30 9t-9 30zM156 649v88q0 37 39 37h118v330q0 53 11.5 96t41.5 83t77 67 t122 43t174 16q428 0 428 -305v-64q0 -22 -9 -31.5t-30 -9.5h-114q-21 0 -30 9.5t-9 31.5v29q0 88 -53 129t-181 41t-177.5 -40.5t-49.5 -129.5v-295h274q22 0 31.5 -8.5t9.5 -28.5v-88q0 -21 -9.5 -30t-31.5 -9h-593q-21 0 -30 9t-9 30z" />
<glyph unicode="&#xa4;" horiz-adv-x="1337" d="M156 539v51q0 20 8.5 28.5t30.5 8.5h81v137h-81q-22 0 -30.5 8.5t-8.5 30.5v51q0 20 8.5 28.5t30.5 8.5h81v203q0 63 20 114.5t64 95.5t125.5 71t194.5 32v-170q-203 -17 -203 -176v-170h268q22 0 31.5 -8.5t9.5 -28.5v-51q0 -21 -9.5 -30t-31.5 -9h-268v-137h268 q22 0 31.5 -8.5t9.5 -28.5v-51q0 -21 -9.5 -30t-31.5 -9h-268v-168q0 -161 203 -178v-168q-113 4 -194.5 30.5t-125.5 71t-64 96t-20 115.5v201h-81q-22 0 -30.5 8.5t-8.5 30.5zM778 -14v168q209 17 209 178v96q0 39 37 39h121q37 0 37 -39v-129q0 -63 -20.5 -115 t-65.5 -96.5t-126 -71t-192 -30.5zM778 1237v170q111 -5 192 -32t126 -71t65.5 -96t20.5 -114v-101q0 -22 -8.5 -31.5t-28.5 -9.5h-121q-20 0 -28.5 9.5t-8.5 31.5v68q0 77 -51.5 123t-157.5 53z" />
<glyph unicode="&#xa5;" horiz-adv-x="1333" d="M162 1354q-16 39 28 39h142q19 0 29 -9t18 -30l389 -832v-483q0 -39 -37 -39h-125q-21 0 -30 9t-9 30v477l-63 129h-236q-39 0 -39 37v51q0 21 9 29t30 8h176l-51 104h-125q-39 0 -39 37v52q0 21 9 28.5t30 7.5h66zM723 846l250 508q7 14 10.5 20t12.5 12.5t22 6.5h125 q46 0 26 -39l-176 -355h74q21 0 30 -7.5t9 -28.5v-52q0 -37 -39 -37h-135l-51 -104h186q21 0 30 -8t9 -29v-51q0 -37 -39 -37h-248z" />
<glyph unicode="&#xa6;" horiz-adv-x="485" d="M145 276q0 22 8.5 31.5t28.5 9.5h121q20 0 28.5 -9.5t8.5 -31.5v-667q0 -22 -8.5 -31.5t-28.5 -9.5h-121q-20 0 -28.5 9.5t-8.5 31.5v667zM145 684v668q0 22 8.5 31.5t28.5 9.5h121q20 0 28.5 -9.5t8.5 -31.5v-668q0 -22 -8.5 -31.5t-28.5 -9.5h-121q-20 0 -28.5 9.5 t-8.5 31.5z" />
<glyph unicode="&#xa7;" d="M168 -127q0 22 8.5 30.5t28.5 8.5h106q20 0 28.5 -8.5t8.5 -30.5v-33q0 -59 37.5 -91.5t122.5 -39.5v-131q-340 14 -340 272v23zM168 981v145q0 123 85.5 199t266.5 82v-133q-85 -6 -122.5 -39t-37.5 -92v-152q0 -67 121 -104l267 -80q73 -22 130.5 -85t57.5 -155v-186 q0 -39 -39 -39h-104q-21 0 -30 9t-9 30v168q0 79 -101 110l-286 89q-35 11 -66.5 27.5t-63 43.5t-50.5 69t-19 93zM190 418v184q0 21 9 30t30 9h105q22 0 30.5 -8.5t8.5 -30.5v-166q0 -45 30.5 -72.5t69.5 -39.5l287 -86q35 -11 66 -27.5t63 -43.5t50.5 -69.5t18.5 -93.5 v-145q0 -123 -85 -198.5t-267 -82.5v131q85 7 122.5 40.5t37.5 92.5v152q0 67 -121 104l-266 80q-74 24 -131.5 86.5t-57.5 153.5zM618 1274v133q340 -20 340 -272v-23q0 -22 -8 -30.5t-28 -8.5h-107q-20 0 -28.5 8.5t-8.5 30.5v31q0 60 -38 92.5t-122 38.5z" />
<glyph unicode="&#xa8;" horiz-adv-x="712" d="M158 1208v195q0 21 9 30t30 9h71q20 0 28.5 -8.5t8.5 -30.5v-195q0 -22 -8.5 -30.5t-28.5 -8.5h-71q-21 0 -30 9t-9 30zM406 1208v195q0 22 8 30.5t30 8.5h72q20 0 28.5 -8.5t8.5 -30.5v-195q0 -22 -8.5 -30.5t-28.5 -8.5h-72q-22 0 -30 8.5t-8 30.5z" />
<glyph unicode="&#xa9;" horiz-adv-x="1533" d="M168 399v596q0 46 5 85t20.5 81.5t40.5 76.5t67 65.5t98.5 53t137 35.5t180.5 17v-125q-406 -13 -406 -264v-647q0 -251 406 -262v-127q-138 3 -239.5 29t-160 63.5t-93 93.5t-45.5 109t-11 120zM453 537v317q0 124 58.5 189.5t205.5 76.5v-137q-51 -10 -70.5 -42.5 t-19.5 -90.5v-307q0 -60 19.5 -93t70.5 -44v-138q-147 10 -205.5 76t-58.5 193zM815 -16v127q408 11 408 262v649q0 249 -408 262v125q138 -3 240 -29t160.5 -64t93.5 -93.5t46 -108.5t11 -119v-596q0 -67 -11 -120t-46 -109t-93.5 -93.5t-160.5 -63.5t-240 -29zM815 268 v140q53 9 74.5 41.5t21.5 93.5v35q0 22 9.5 31t29.5 9h97q21 0 29.5 -9t8.5 -31v-41q0 -127 -60.5 -193t-209.5 -76zM815 985v135q149 -10 209.5 -76t60.5 -190v-25q0 -22 -8 -30t-30 -8h-97q-21 0 -30 8.5t-9 29.5v21q0 59 -21.5 92t-74.5 43z" />
<glyph unicode="&#xaa;" horiz-adv-x="727" d="M113 930v55q0 66 48 109t134 43h76v-99h-47q-32 0 -49 -17t-17 -44v-29q0 -61 78 -61q21 0 35 4v-105q-34 -10 -82 -10q-88 0 -132 43.5t-44 110.5zM129 1225v16q0 168 244 168q129 0 185 -44t56 -130v-418q0 -31 -26 -31h-90q-17 0 -23 6.5t-6 24.5v420q0 33 -22 49.5 t-78 16.5q-101 0 -101 -64v-14q0 -29 -26 -29h-84q-17 0 -23 6.5t-6 22.5z" />
<glyph unicode="&#xab;" horiz-adv-x="1239" d="M160 395v166q0 28 37 53l385 281q15 10 27 1.5t12 -28.5v-125q0 -31 -39 -55zM242 330l143 102l197 -117q39 -23 39 -55v-123q0 -21 -12 -28.5t-27 2.5zM618 395v166q0 28 37 53l385 281q15 10 27 1.5t12 -28.5v-125q0 -31 -39 -55zM700 330l144 102l196 -117 q39 -23 39 -55v-123q0 -21 -12 -28.5t-27 2.5z" />
<glyph unicode="&#xac;" horiz-adv-x="794" d="M154 649q0 100 70 171t171 71q100 0 171 -71t71 -171q0 -101 -71 -171t-171 -70q-101 0 -171 70t-70 171z" />
<glyph unicode="&#xad;" horiz-adv-x="917" d="M145 547v88q0 21 9 30t30 9h549q21 0 30 -9t9 -30v-88q0 -39 -39 -39h-549q-39 0 -39 39z" />
<glyph unicode="&#xae;" horiz-adv-x="1294" d="M168 731v371q0 35 6 65t21 65.5t46.5 64t77 53t117.5 39.5t164 18v-119q-301 -12 -301 -174v-395q0 -163 301 -178v-117q-92 3 -164 17.5t-117.5 39.5t-77 53t-46.5 64t-21 66.5t-6 66.5zM434 666v493q0 29 27 29h100v-522q0 -29 -26 -29h-74q-27 0 -27 29zM659 827v101 h7q43 0 66.5 17t23.5 46v31q0 31 -23.5 48t-66.5 17h-7v101h17q211 0 211 -160v-41q0 -101 -90 -137l75 -184q5 -12 -2 -20.5t-24 -8.5h-74q-11 0 -16.5 6.5t-10.5 22.5l-67 161h-19zM698 424v117q299 15 299 176v397q0 159 -299 174v119q108 -4 189 -26t126 -51.5t72 -71.5 t35 -78t8 -78v-371q0 -43 -8 -79.5t-35 -78.5t-72 -72t-126 -52t-189 -25z" />
<glyph unicode="&#xaf;" horiz-adv-x="843" d="M133 1239v74q0 21 9.5 29t31.5 8h496q22 0 30.5 -8t8.5 -29v-74q0 -20 -8.5 -28.5t-30.5 -8.5h-496q-22 0 -31.5 8.5t-9.5 28.5z" />
<glyph unicode="&#xb0;" horiz-adv-x="856" d="M123 1001v197q0 94 58.5 146t197.5 61v-131q-90 -15 -90 -82v-182q0 -69 90 -84v-131q-140 7 -198 59t-58 147zM477 795v131q90 16 90 84v182q0 63 -90 82v131q138 -9 197 -61.5t59 -145.5v-197q0 -95 -59 -147t-197 -59z" />
<glyph unicode="&#xb1;" horiz-adv-x="1169" d="M145 188v86q0 21 9 30t30 9h801q21 0 30 -9t9 -30v-86q0 -41 -39 -41h-801q-39 0 -39 41zM145 737v88q0 37 39 37h222v-164h-222q-21 0 -30 9t-9 30zM504 473v614q0 21 8 30t29 9h84q21 0 30 -9t9 -30v-614q0 -22 -9 -31.5t-30 -9.5h-84q-21 0 -29 9.5t-8 31.5zM762 698 v164h223q39 0 39 -37v-88q0 -21 -9 -30t-30 -9h-223z" />
<glyph unicode="&#xb2;" horiz-adv-x="778" d="M109 1141v71q0 77 53.5 131t173.5 64v-123q-78 -21 -78 -94v-49q0 -17 -6 -24t-21 -7h-94q-28 0 -28 31zM127 592v96h514q29 0 29 -29v-67q0 -29 -29 -29h-487q-27 0 -27 29zM127 780v37q0 34 14 57.5t30 33.5t42 20l246 98q55 19 55 74v90q0 73 -80 94v123 q118 -10 174 -64.5t56 -130.5v-104q0 -136 -115 -180l-219 -88q-51 -19 -51 -47v-13h-152z" />
<glyph unicode="&#xb3;" horiz-adv-x="776" d="M111 750v32q0 29 26 29h92q31 0 31 -29v-12q0 -78 78 -92v-121q-121 7 -174 60.5t-53 132.5zM115 1182v32q0 177 223 195v-123q-74 -17 -74 -92v-12q0 -29 -28 -29h-93q-28 0 -28 29zM262 965v63q0 29 31 29h84q67 0 97 23.5t30 72.5v41q0 73 -68 90v125 q219 -18 219 -190v-89q0 -51 -21 -81.5t-73 -47.5q57 -19 81 -54t24 -87v-115q0 -78 -54 -130t-176 -58v121q80 16 80 92v72q0 96 -127 96h-96q-31 0 -31 27z" />
<glyph unicode="&#xb4;" horiz-adv-x="663" d="M178 1194l121 219q19 37 53 37h127q21 0 26 -11t-7 -28l-156 -229q-15 -25 -49 -25h-94q-40 0 -21 37z" />
<glyph unicode="&#xb5;" horiz-adv-x="1085" d="M133 -377v1352q0 41 39 41h117q21 0 30 -9.5t9 -31.5v-682q0 -67 35 -101t116 -34q97 0 168 35v-162q-96 -47 -217 -47q-84 0 -113 47l11 -408q2 -22 -6.5 -31.5t-30.5 -9.5h-119q-39 0 -39 41zM745 39v936q0 41 39 41h121q20 0 28.5 -9.5t8.5 -31.5v-936q0 -21 -9 -30 t-30 -9h-119q-21 0 -30 9t-9 30z" />
<glyph unicode="&#xb6;" horiz-adv-x="1361" d="M168 846v278q0 62 18.5 108.5t62 84t122.5 57t192 19.5h238q37 0 37 -39v-1731q0 -22 -8.5 -31.5t-28.5 -9.5h-127q-20 0 -28.5 9.5t-8.5 31.5v955h-74q-113 0 -192 19.5t-122.5 56.5t-62 83.5t-18.5 108.5zM995 -377v1729q0 22 8.5 31.5t28.5 9.5h125q21 0 30 -9.5 t9 -31.5v-1729q0 -22 -9 -31.5t-30 -9.5h-125q-20 0 -28.5 9.5t-8.5 31.5z" />
<glyph unicode="&#xb7;" horiz-adv-x="477" d="M139 471v164q0 21 9 30t30 9h123q37 0 37 -39v-164q0 -22 -8.5 -30.5t-28.5 -8.5h-123q-22 0 -30.5 8.5t-8.5 30.5z" />
<glyph unicode="&#xb8;" horiz-adv-x="444" d="M10 -352q0 37 39 37h203q19 0 31.5 2.5t23 13.5t10.5 31q0 29 -17 37t-48 8h-135q-36 0 -48 12t-6 37l17 68h201q76 0 125 -41t49 -121q0 -82 -49 -123t-125 -41h-232q-21 0 -30 9t-9 30v41z" />
<glyph unicode="&#xb9;" horiz-adv-x="768" d="M111 594v68q0 16 6 21t22 5h492q16 0 21 -4.5t5 -21.5v-68q0 -17 -5.5 -23t-20.5 -6h-492q-15 0 -21.5 6t-6.5 23zM111 1251v70q0 26 28 29l297 57q11 2 19 -3.5t8 -23.5v-600h-154v477l-170 -28q-28 -6 -28 22z" />
<glyph unicode="&#xba;" horiz-adv-x="745" d="M111 954v277q0 75 54 121t159 55v-119q-64 -15 -64 -65v-256q0 -57 64 -72v-117q-105 7 -159 54t-54 122zM422 778v117q61 16 61 72v256q0 50 -61 65v119q103 -9 157 -55t54 -121v-277q0 -75 -54.5 -122t-156.5 -54z" />
<glyph unicode="&#xbb;" horiz-adv-x="1236" d="M160 152v122q0 33 39 56l196 116l144 -102l-340 -219q-15 -10 -27 -2t-12 29zM160 758v125q0 20 12 28t27 -2l385 -280q37 -25 37 -54v-165l-422 292q-39 24 -39 56zM616 152v122q0 33 39 56l197 116l143 -102l-340 -219q-15 -10 -27 -2t-12 29zM616 758v125q0 20 12 28 t27 -2l385 -280q37 -25 37 -54v-165l-422 292q-39 24 -39 56z" />
<glyph unicode="&#xbc;" horiz-adv-x="1761" d="M111 594v68q0 16 6 21t22 5h492q16 0 21 -4.5t5 -21.5v-68q0 -17 -5.5 -23t-20.5 -6h-492q-15 0 -21.5 6t-6.5 23zM111 1251v70q0 26 28 29l297 57q11 2 19 -3.5t8 -23.5v-600h-154v477l-170 -28q-28 -6 -28 22zM641 -72l387 1536q6 29 35 29h100q29 0 23 -29l-389 -1536 q-3 -15 -9.5 -21.5t-21.5 -6.5h-102q-29 0 -23 28zM1090 264v55q0 18 10 48l141 440q6 29 35 29h98q27 0 21 -29l-144 -449h150v-122h-281q-30 0 -30 28zM1499 29v778q0 29 29 29h96q17 0 23 -6.5t6 -22.5v-778q0 -16 -6 -22.5t-23 -6.5h-96q-29 0 -29 29z" />
<glyph unicode="&#xbd;" horiz-adv-x="1783" d="M111 594v68q0 16 6 21t22 5h492q16 0 21 -4.5t5 -21.5v-68q0 -17 -5.5 -23t-20.5 -6h-492q-15 0 -21.5 6t-6.5 23zM111 1251v70q0 26 28 29l297 57q11 2 19 -3.5t8 -23.5v-600h-154v477l-170 -28q-28 -6 -28 22zM625 -72l389 1536q6 29 33 29h102q26 0 20 -29l-389 -1536 q-3 -16 -9.5 -22t-20.5 -6h-103q-28 0 -22 28zM1114 578v71q0 77 53.5 131t173.5 64v-123q-77 -20 -77 -94v-49q0 -17 -6 -24t-21 -7h-94q-29 0 -29 31zM1133 29v96h514q28 0 28 -29v-67q0 -29 -28 -29h-488q-26 0 -26 29zM1133 217v37q0 34 14 57.5t30 33.5t42 20l245 98 q56 19 56 74v90q0 73 -80 94v123q118 -10 173.5 -64.5t55.5 -130.5v-104q0 -136 -115 -180l-219 -89q-51 -19 -51 -47v-12h-151z" />
<glyph unicode="&#xbe;" horiz-adv-x="1773" d="M111 748v34q0 27 26 27h92q31 0 31 -27v-12q0 -77 78 -94v-121q-121 8 -174 61.5t-53 131.5zM115 1180v34q0 175 223 193v-123q-74 -17 -74 -92v-12q0 -27 -28 -27h-93q-28 0 -28 27zM262 963v65q0 29 31 29h84q68 0 97.5 23t29.5 71v41q0 72 -68 92v123 q219 -18 219 -190v-89q0 -50 -21 -81.5t-73 -45.5q57 -21 81 -56t24 -87v-115q0 -78 -54 -130t-176 -58v121q80 19 80 94v72q0 48 -30 71t-97 23h-96q-31 0 -31 27zM653 -72l389 1536q6 29 33 29h103q26 0 20 -29l-389 -1536q-3 -28 -31 -28h-102q-26 0 -23 28zM1102 264v55 q0 12 8 48l141 440q6 29 35 29h98q27 0 21 -29l-143 -449h151v-122h-280q-31 0 -31 28zM1511 29v778q0 29 27 29h98q29 0 29 -29v-778q0 -29 -29 -29h-98q-27 0 -27 29z" />
<glyph unicode="&#xbf;" horiz-adv-x="1159" d="M133 51q0 205 178 289l113 53q46 22 70 50.5t24 80.5v103q0 22 8.5 30.5t28.5 8.5h125q22 0 30.5 -8.5t8.5 -30.5v-152q0 -42 -11.5 -74.5t-35.5 -55t-40.5 -34t-45.5 -26.5l-162 -84q-92 -47 -92 -144v-104q0 -162 200 -176v-168q-211 10 -305 96t-94 217v129zM518 813 v164q0 22 8.5 30.5t28.5 8.5h125q22 0 30.5 -8.5t8.5 -30.5v-164q0 -21 -9 -30t-30 -9h-125q-37 0 -37 39zM631 -223q200 14 200 176v88q0 22 8 31.5t29 9.5h119q39 0 39 -41v-119q0 -63 -20 -114.5t-63.5 -95.5t-122.5 -71t-189 -32v168z" />
<glyph unicode="&#xc0;" horiz-adv-x="1101" d="M41 39l397 1315q12 39 49 39h127q38 0 50 -39l397 -1315q12 -39 -31 -39h-129q-33 0 -45 39l-96 317h-332l45 160h244l-115 373q-10 32 -24 107.5t-22 135.5l-9 60q-1 -3 -10.5 -63t-23 -129.5t-24.5 -106.5l-256 -854q-12 -39 -45 -39h-118q-41 0 -29 39zM281 1786 q5 12 26 12h127q36 0 53 -39l121 -217q17 -39 -18 -39h-96q-32 0 -50 27l-155 227q-13 17 -8 29z" />
<glyph unicode="&#xc1;" horiz-adv-x="1101" d="M41 39l397 1315q12 39 49 39h127q38 0 50 -39l397 -1315q12 -39 -31 -39h-129q-33 0 -45 39l-96 317h-332l45 160h244l-115 373q-10 32 -24 107.5t-22 135.5l-9 60q-1 -3 -10.5 -63t-23 -129.5t-24.5 -106.5l-256 -854q-12 -39 -45 -39h-118q-41 0 -29 39zM483 1542 l121 219q19 37 53 37h127q21 0 26.5 -11t-5.5 -28l-158 -229q-15 -25 -49 -25h-94q-37 0 -21 37z" />
<glyph unicode="&#xc2;" horiz-adv-x="1101" d="M41 39l397 1315q12 39 49 39h127q38 0 50 -39l397 -1315q12 -39 -31 -39h-129q-33 0 -45 39l-96 317h-332l45 160h244l-115 373q-10 32 -24 107.5t-22 135.5l-9 60q-1 -3 -10.5 -63t-23 -129.5t-24.5 -106.5l-256 -854q-12 -39 -45 -39h-118q-41 0 -29 39zM293.5 1516 q-5.5 11 5.5 26l154 217q27 39 61 39h72q34 0 61 -39l154 -217q12 -15 6 -26t-27 -11h-92q-34 0 -53 37l-84 137l-84 -137q-21 -37 -55 -37h-93q-20 0 -25.5 11z" />
<glyph unicode="&#xc3;" horiz-adv-x="1101" d="M41 39l397 1315q12 39 49 39h127q38 0 50 -39l397 -1315q12 -39 -31 -39h-129q-33 0 -45 39l-96 317h-332l45 160h244l-115 373q-10 32 -24 107.5t-22 135.5l-9 60q-1 -3 -10.5 -63t-23 -129.5t-24.5 -106.5l-256 -854q-12 -39 -45 -39h-118q-41 0 -29 39zM231 1567l5 65 q4 82 49.5 123t111.5 41q67 0 121 -33l88 -53q7 -4 22 -12.5t23 -13.5t19 -9t18 -4q25 0 32 16t7 62v14q0 35 43 35h64q35 0 32 -45l-4 -65q-4 -81 -50.5 -122.5t-113.5 -41.5t-118 32l-88 54q-7 4 -22 12.5t-23 13.5t-19 9t-18 4q-26 0 -32.5 -15.5t-6.5 -62.5v-15 q0 -21 -9.5 -27.5t-31.5 -6.5h-66q-36 0 -33 45z" />
<glyph unicode="&#xc4;" horiz-adv-x="1101" d="M41 39l397 1315q12 39 49 39h127q38 0 50 -39l397 -1315q12 -39 -31 -39h-129q-33 0 -45 39l-96 317h-332l45 160h244l-115 373q-10 32 -24 107.5t-22 135.5l-9 60q-1 -3 -10.5 -63t-23 -129.5t-24.5 -106.5l-256 -854q-12 -39 -45 -39h-118q-41 0 -29 39zM354 1552v195 q0 22 8.5 31.5t28.5 9.5h72q21 0 29 -9.5t8 -31.5v-195q0 -22 -8 -30.5t-29 -8.5h-72q-20 0 -28.5 8.5t-8.5 30.5zM602 1552v195q0 22 8.5 31.5t28.5 9.5h72q20 0 28.5 -9.5t8.5 -31.5v-195q0 -22 -8.5 -30.5t-28.5 -8.5h-72q-20 0 -28.5 8.5t-8.5 30.5z" />
<glyph unicode="&#xc5;" horiz-adv-x="1101" d="M41 39l397 1315q12 39 49 39h127q38 0 50 -39l397 -1315q12 -39 -31 -39h-129q-33 0 -45 39l-96 317h-332l45 160h244l-115 373q-10 32 -24 107.5t-22 135.5l-9 60q-1 -3 -10.5 -63t-23 -129.5t-24.5 -106.5l-256 -854q-12 -39 -45 -39h-118q-41 0 -29 39zM346 1622v47 q0 57 40 99.5t116 52.5v-103q-39 -20 -39 -65v-15q0 -48 39 -65v-105q-76 10 -116 52.5t-40 101.5zM600 1468v105q39 22 39 65v15q0 43 -39 65v103q74 -10 115 -53t41 -99v-47q0 -58 -41 -101t-115 -53z" />
<glyph unicode="&#xc6;" horiz-adv-x="1714" d="M43 10q-9 10 2 29l772 1315q22 39 55 39h148v-1393h-148q-43 0 -43 39v317h-307l94 160h213v553q-12 -24 -69 -129l-522 -901q-1 -1 -4.5 -6.5t-4.5 -7.5t-4.5 -6.5t-5.5 -6l-6 -4.5t-7 -4.5t-7 -2.5t-9 -1h-116q-22 0 -31 10zM1118 0v164h463q39 0 39 -37v-88 q0 -21 -9 -30t-30 -9h-463zM1118 647v158h404q21 0 30 -8t9 -29v-82q0 -21 -9 -30t-30 -9h-404zM1118 1229v164h438q22 0 30.5 -8.5t8.5 -28.5v-88q0 -22 -8.5 -30.5t-30.5 -8.5h-438z" />
<glyph unicode="&#xc7;" horiz-adv-x="1144" d="M145 299v795q0 63 20 114.5t64 95.5t125.5 71t194.5 32v-170q-203 -17 -203 -176v-729q0 -161 203 -178v-168q-113 4 -194.5 30.5t-125.5 71t-64 96t-20 115.5zM371 -352q0 37 39 37h202q19 0 31.5 2.5t23.5 13.5t11 31q0 29 -17.5 37t-48.5 8h-135q-36 0 -47.5 11.5 t-5.5 37.5l16 68h201q76 0 125 -41t49 -121q0 -82 -49 -123t-125 -41h-231q-21 0 -30 9t-9 30v41zM647 -14v168q209 17 209 178v96q0 39 37 39h121q37 0 37 -39v-129q0 -63 -20.5 -115t-65.5 -96.5t-126 -71t-192 -30.5zM647 1237v170q111 -5 192 -32t126 -71t65.5 -96 t20.5 -114v-101q0 -22 -8.5 -31.5t-28.5 -9.5h-121q-20 0 -28.5 9.5t-8.5 31.5v68q0 77 -51.5 123t-157.5 53z" />
<glyph unicode="&#xc8;" horiz-adv-x="1062" d="M168 41v1311q0 22 8.5 31.5t28.5 9.5h164v-1393h-164q-20 0 -28.5 9.5t-8.5 31.5zM320 1786q5 12 26 12h127q36 0 53 -39l121 -217q17 -39 -18 -39h-97q-31 0 -49 27l-155 227q-13 17 -8 29zM467 0v170h461q22 0 30.5 -8t8.5 -29v-94q0 -22 -8.5 -30.5t-30.5 -8.5h-461z M467 643v166h401q22 0 31.5 -9t9.5 -30v-88q0 -39 -41 -39h-401zM467 1223v170h438q21 0 30 -9t9 -30v-92q0 -21 -9 -30t-30 -9h-438z" />
<glyph unicode="&#xc9;" horiz-adv-x="1062" d="M168 41v1311q0 22 8.5 31.5t28.5 9.5h164v-1393h-164q-20 0 -28.5 9.5t-8.5 31.5zM459 1513.5q-5 8.5 4 28.5l121 219q19 37 53 37h127q21 0 26 -11t-6 -28l-157 -229q-15 -25 -49 -25h-95q-19 0 -24 8.5zM467 0v170h461q22 0 30.5 -8t8.5 -29v-94q0 -22 -8.5 -30.5 t-30.5 -8.5h-461zM467 643v166h401q22 0 31.5 -9t9.5 -30v-88q0 -39 -41 -39h-401zM467 1223v170h438q21 0 30 -9t9 -30v-92q0 -21 -9 -30t-30 -9h-438z" />
<glyph unicode="&#xca;" horiz-adv-x="1062" d="M168 41v1311q0 22 8.5 31.5t28.5 9.5h164v-1393h-164q-20 0 -28.5 9.5t-8.5 31.5zM275.5 1516q-5.5 11 5.5 26l153 217q27 39 62 39h71q35 0 62 -39l153 -217q12 -15 6.5 -26t-26.5 -11h-92q-36 0 -54 37l-84 137l-83 -137q-21 -37 -56 -37h-92q-20 0 -25.5 11zM467 0 v170h461q22 0 30.5 -8t8.5 -29v-94q0 -22 -8.5 -30.5t-30.5 -8.5h-461zM467 643v166h401q22 0 31.5 -9t9.5 -30v-88q0 -39 -41 -39h-401zM467 1223v170h438q21 0 30 -9t9 -30v-92q0 -21 -9 -30t-30 -9h-438z" />
<glyph unicode="&#xcb;" horiz-adv-x="1062" d="M168 41v1311q0 22 8.5 31.5t28.5 9.5h164v-1393h-164q-20 0 -28.5 9.5t-8.5 31.5zM358 1552v195q0 22 8.5 31.5t28.5 9.5h72q21 0 29 -9.5t8 -31.5v-195q0 -22 -8 -30.5t-29 -8.5h-72q-20 0 -28.5 8.5t-8.5 30.5zM467 0v170h461q22 0 30.5 -8t8.5 -29v-94 q0 -22 -8.5 -30.5t-30.5 -8.5h-461zM467 643v166h401q22 0 31.5 -9t9.5 -30v-88q0 -39 -41 -39h-401zM467 1223v170h438q21 0 30 -9t9 -30v-92q0 -21 -9 -30t-30 -9h-438zM606 1552v195q0 22 8.5 31.5t28.5 9.5h72q20 0 28.5 -9.5t8.5 -31.5v-195q0 -22 -8.5 -30.5 t-28.5 -8.5h-72q-20 0 -28.5 8.5t-8.5 30.5z" />
<glyph unicode="&#xcc;" horiz-adv-x="534" d="M7 1786q5 12 26 12h127q36 0 53 -39l121 -217q17 -39 -19 -39h-96q-31 0 -49 27l-156 227q-12 17 -7 29zM168 41v1311q0 22 8.5 31.5t28.5 9.5h125q21 0 30 -9.5t9 -31.5v-1311q0 -22 -9 -31.5t-30 -9.5h-125q-20 0 -28.5 9.5t-8.5 31.5z" />
<glyph unicode="&#xcd;" horiz-adv-x="534" d="M168 41v1311q0 22 8.5 31.5t28.5 9.5h125q21 0 30 -9.5t9 -31.5v-1311q0 -22 -9 -31.5t-30 -9.5h-125q-20 0 -28.5 9.5t-8.5 31.5zM189 1513.5q-5 8.5 4 28.5l120 219q19 37 54 37h127q21 0 26 -11t-6 -28l-158 -229q-15 -25 -49 -25h-94q-19 0 -24 8.5z" />
<glyph unicode="&#xce;" horiz-adv-x="534" d="M11 1516q-6 11 5 26l154 217q27 39 61 39h72q35 0 62 -39l153 -217q12 -15 6.5 -26t-26.5 -11h-92q-36 0 -54 37l-84 137l-84 -137q-21 -37 -55 -37h-92q-20 0 -26 11zM168 41v1311q0 22 8.5 31.5t28.5 9.5h125q21 0 30 -9.5t9 -31.5v-1311q0 -22 -9 -31.5t-30 -9.5h-125 q-20 0 -28.5 9.5t-8.5 31.5z" />
<glyph unicode="&#xcf;" horiz-adv-x="534" d="M72 1552v195q0 22 8.5 31.5t28.5 9.5h71q21 0 29 -9.5t8 -31.5v-195q0 -22 -8 -30.5t-29 -8.5h-71q-20 0 -28.5 8.5t-8.5 30.5zM168 41v1311q0 22 8.5 31.5t28.5 9.5h125q21 0 30 -9.5t9 -31.5v-1311q0 -22 -9 -31.5t-30 -9.5h-125q-20 0 -28.5 9.5t-8.5 31.5zM319 1552 v195q0 22 8.5 31.5t28.5 9.5h72q20 0 28.5 -9.5t8.5 -31.5v-195q0 -22 -8.5 -30.5t-28.5 -8.5h-72q-20 0 -28.5 8.5t-8.5 30.5z" />
<glyph unicode="&#xd0;" horiz-adv-x="1245" d="M14 666v73q0 21 9 29t30 8h115v576q0 22 8.5 31.5t28.5 9.5h164v-617h233q21 0 30 -8t9 -29v-73q0 -37 -39 -37h-233v-629h-168q-33 0 -33 41v588h-115q-39 0 -39 37zM467 0v170h166q266 0 266 178v696q0 86 -65.5 132.5t-200.5 46.5h-166v170h166q127 0 220.5 -25 t146 -70.5t76.5 -100t24 -120.5v-762q0 -66 -24 -120.5t-76.5 -99.5t-146 -70t-220.5 -25h-166z" />
<glyph unicode="&#xd1;" horiz-adv-x="1265" d="M168 39v1315q0 39 37 39h151v-1354q0 -39 -37 -39h-114q-37 0 -37 39zM315 1567l4 65q4 82 50 123t112 41q67 0 121 -33l88 -53q7 -4 22 -12.5t23 -13.5t19 -9t18 -4q25 0 32 16t7 62v14q0 35 43 35h64q35 0 32 -45l-4 -65q-4 -81 -50.5 -122.5t-113.5 -41.5t-118 32 l-89 54q-7 4 -21.5 12.5t-23 13.5t-19 9t-17.5 4q-26 0 -32.5 -15.5t-6.5 -62.5v-15q0 -21 -9.5 -27.5t-31.5 -6.5h-66q-36 0 -33 45zM455 829v400l356 -666v-399zM909 0v1354q0 39 39 39h113q21 0 29 -9t8 -30v-1315q0 -21 -8 -30t-29 -9h-152z" />
<glyph unicode="&#xd2;" horiz-adv-x="1222" d="M145 299v795q0 62 21.5 114t68.5 96t130 71t196 32v-170q-108 -7 -161.5 -53t-53.5 -123v-729q0 -160 215 -178v-168q-113 4 -196 31t-130 70.5t-68.5 96t-21.5 115.5zM349 1786q5 12 26 12h127q36 0 53 -39l121 -217q17 -39 -19 -39h-96q-31 0 -49 27l-156 227 q-12 17 -7 29zM659 -14v168q218 18 218 178v729q0 76 -55.5 122.5t-162.5 53.5v170q218 -10 318 -96t100 -217v-795q0 -63 -22 -115.5t-69.5 -96t-130.5 -70.5t-196 -31z" />
<glyph unicode="&#xd3;" horiz-adv-x="1222" d="M145 299v795q0 62 21.5 114t68.5 96t130 71t196 32v-170q-108 -7 -161.5 -53t-53.5 -123v-729q0 -160 215 -178v-168q-113 4 -196 31t-130 70.5t-68.5 96t-21.5 115.5zM518 1542l121 219q19 37 53 37h127q21 0 26.5 -11t-5.5 -28l-158 -229q-15 -25 -49 -25h-94 q-37 0 -21 37zM659 -14v168q218 18 218 178v729q0 76 -55.5 122.5t-162.5 53.5v170q218 -10 318 -96t100 -217v-795q0 -63 -22 -115.5t-69.5 -96t-130.5 -70.5t-196 -31z" />
<glyph unicode="&#xd4;" horiz-adv-x="1222" d="M145 299v795q0 62 21.5 114t68.5 96t130 71t196 32v-170q-108 -7 -161.5 -53t-53.5 -123v-729q0 -160 215 -178v-168q-113 4 -196 31t-130 70.5t-68.5 96t-21.5 115.5zM353 1516q-6 11 5 26l154 217q27 39 61 39h72q35 0 62 -39l153 -217q12 -15 6.5 -26t-26.5 -11h-92 q-36 0 -54 37l-84 137l-84 -137q-21 -37 -55 -37h-92q-20 0 -26 11zM659 -14v168q218 18 218 178v729q0 76 -55.5 122.5t-162.5 53.5v170q218 -10 318 -96t100 -217v-795q0 -63 -22 -115.5t-69.5 -96t-130.5 -70.5t-196 -31z" />
<glyph unicode="&#xd5;" horiz-adv-x="1222" d="M145 299v795q0 62 21.5 114t68.5 96t130 71t196 32v-170q-108 -7 -161.5 -53t-53.5 -123v-729q0 -160 215 -178v-168q-113 4 -196 31t-130 70.5t-68.5 96t-21.5 115.5zM293 1567l4 65q4 82 50 123t112 41q67 0 121 -33l88 -53q7 -4 22 -12.5t23 -13.5t19 -9t18 -4 q25 0 31.5 16t6.5 62v14q0 35 43 35h64q36 0 33 -45l-4 -65q-4 -81 -50.5 -122.5t-113.5 -41.5q-68 0 -119 32l-88 54q-7 4 -22 12.5t-23 13.5t-19 9t-18 4q-26 0 -32.5 -15.5t-6.5 -62.5v-15q0 -21 -9.5 -27.5t-31.5 -6.5h-65q-36 0 -33 45zM659 -14v168q218 18 218 178 v729q0 76 -55.5 122.5t-162.5 53.5v170q218 -10 318 -96t100 -217v-795q0 -63 -22 -115.5t-69.5 -96t-130.5 -70.5t-196 -31z" />
<glyph unicode="&#xd6;" horiz-adv-x="1222" d="M145 299v795q0 62 21.5 114t68.5 96t130 71t196 32v-170q-108 -7 -161.5 -53t-53.5 -123v-729q0 -160 215 -178v-168q-113 4 -196 31t-130 70.5t-68.5 96t-21.5 115.5zM414 1552v195q0 22 8.5 31.5t28.5 9.5h71q21 0 29 -9.5t8 -31.5v-195q0 -22 -8 -30.5t-29 -8.5h-71 q-20 0 -28.5 8.5t-8.5 30.5zM659 -14v168q218 18 218 178v729q0 76 -55.5 122.5t-162.5 53.5v170q218 -10 318 -96t100 -217v-795q0 -63 -22 -115.5t-69.5 -96t-130.5 -70.5t-196 -31zM662 1552v195q0 22 8 31.5t28 9.5h72q20 0 28.5 -9.5t8.5 -31.5v-195q0 -22 -8.5 -30.5 t-28.5 -8.5h-72q-20 0 -28 8.5t-8 30.5z" />
<glyph unicode="&#xd7;" horiz-adv-x="1112" d="M154 512q-17 36 16 55l188 107l82 -144l-190 -106q-35 -21 -53 12zM285 999q-21 34 12 54l74 47q32 18 53 -19l399 -692q10 -18 8 -31.5t-20 -23.5l-74 -43q-34 -21 -53 14zM670 854l192 111q19 11 31 8t22 -21l46 -75q21 -35 -19 -54l-192 -112z" />
<glyph unicode="&#xd8;" horiz-adv-x="1222" d="M145 297v795q0 66 24 120.5t76 99.5t145 70t220 25q99 0 176 -14l-77 -166q-41 8 -99 8q-264 0 -264 -176v-565l-160 -349q-41 64 -41 152zM204.5 -54q-3.5 12 4.5 29l696 1438q9 21 19 31t28 10h45q17 0 20.5 -13t-5.5 -28l-695 -1438q-11 -24 -20.5 -32.5t-28.5 -8.5 h-45q-15 0 -18.5 12zM434 -2l76 162q58 -8 100 -8q135 0 201 46.5t66 131.5v588l157 329q43 -60 43 -155v-795q0 -66 -24 -120.5t-76.5 -99.5t-146 -70t-220.5 -25q-101 0 -176 16z" />
<glyph unicode="&#xd9;" horiz-adv-x="1245" d="M156 299v1053q0 22 9 31.5t30 9.5h124q20 0 28.5 -9.5t8.5 -31.5v-1020q0 -160 215 -178v-168q-113 4 -195.5 31t-129 70.5t-68.5 96t-22 115.5zM373 1786q5 12 26 12h127q37 0 54 -39l120 -217q17 -39 -18 -39h-96q-31 0 -49 27l-156 227q-13 17 -8 29zM670 -14v168 q217 18 217 178v1020q0 41 39 41h125q21 0 28.5 -9t7.5 -32v-1053q0 -63 -22 -115.5t-68.5 -96t-130 -70.5t-196.5 -31z" />
<glyph unicode="&#xda;" horiz-adv-x="1245" d="M156 299v1053q0 22 9 31.5t30 9.5h124q20 0 28.5 -9.5t8.5 -31.5v-1020q0 -160 215 -178v-168q-113 4 -195.5 31t-129 70.5t-68.5 96t-22 115.5zM541 1513.5q-5 8.5 4 28.5l121 219q19 37 53 37h127q21 0 26 -11t-6 -28l-157 -229q-15 -25 -50 -25h-94q-19 0 -24 8.5z M670 -14v168q217 18 217 178v1020q0 41 39 41h125q21 0 28.5 -9t7.5 -32v-1053q0 -63 -22 -115.5t-68.5 -96t-130 -70.5t-196.5 -31z" />
<glyph unicode="&#xdb;" horiz-adv-x="1245" d="M156 299v1053q0 22 9 31.5t30 9.5h124q20 0 28.5 -9.5t8.5 -31.5v-1020q0 -160 215 -178v-168q-113 4 -195.5 31t-129 70.5t-68.5 96t-22 115.5zM365.5 1516q-5.5 11 5.5 26l153 217q27 39 62 39h71q35 0 62 -39l153 -217q12 -15 6.5 -26t-26.5 -11h-92q-34 0 -53 37 l-84 137l-84 -137q-21 -37 -56 -37h-92q-20 0 -25.5 11zM670 -14v168q217 18 217 178v1020q0 41 39 41h125q21 0 28.5 -9t7.5 -32v-1053q0 -63 -22 -115.5t-68.5 -96t-130 -70.5t-196.5 -31z" />
<glyph unicode="&#xdc;" horiz-adv-x="1245" d="M156 299v1053q0 22 9 31.5t30 9.5h124q20 0 28.5 -9.5t8.5 -31.5v-1020q0 -160 215 -178v-168q-113 4 -195.5 31t-129 70.5t-68.5 96t-22 115.5zM426 1552v195q0 22 8.5 31.5t28.5 9.5h72q21 0 28.5 -9t7.5 -32v-195q0 -22 -7.5 -30.5t-28.5 -8.5h-72q-20 0 -28.5 8.5 t-8.5 30.5zM670 -14v168q217 18 217 178v1020q0 41 39 41h125q21 0 28.5 -9t7.5 -32v-1053q0 -63 -22 -115.5t-68.5 -96t-130 -70.5t-196.5 -31zM674 1552v195q0 22 8.5 31.5t28.5 9.5h71q20 0 28.5 -9.5t8.5 -31.5v-195q0 -22 -8.5 -30.5t-28.5 -8.5h-71q-20 0 -28.5 8.5 t-8.5 30.5z" />
<glyph unicode="&#xdd;" horiz-adv-x="1083" d="M37 1354q-16 39 29 39h141q19 0 29 -9t18 -30l389 -832v-483q0 -39 -37 -39h-125q-21 0 -30 9t-9 30v477zM481 1542l121 219q19 37 53 37h127q21 0 26.5 -11t-5.5 -28l-158 -229q-15 -25 -49 -25h-94q-37 0 -21 37zM598 846l250 508q7 14 10.5 20t12.5 12.5t22 6.5h125 q46 0 26 -39l-350 -703z" />
<glyph unicode="&#xde;" horiz-adv-x="1171" d="M168 39v1315q0 39 37 39h125q21 0 30 -9t9 -30v-1315q0 -21 -9 -30t-30 -9h-125q-37 0 -37 39zM467 195v165h154q266 0 266 181v129q0 180 -266 180h-154v166h154q127 0 220 -25t144.5 -70t75.5 -99t24 -120v-194q0 -52 -14 -97t-48 -85.5t-86 -69t-132.5 -45 t-183.5 -16.5h-154z" />
<glyph unicode="&#xdf;" horiz-adv-x="1267" d="M49 893v72q0 20 9 28.5t30 10.5l107 8h14v157q0 123 94.5 197.5t286.5 81.5v-150q-187 -14 -187 -147v-299h-315q-21 0 -30 9.5t-9 31.5zM209 41v719h194v-719q0 -22 -8 -31.5t-28 -9.5h-121q-20 0 -28.5 9.5t-8.5 31.5zM518 252v16q0 41 39 41h82q21 0 30 -9.5t9 -31.5 v-24q0 -59 28.5 -90.5t98.5 -40.5v-127q-161 9 -224 75t-63 191zM522 760v28q0 72 44.5 118t105.5 69l102 37q100 34 100 112v31q0 129 -186 143v150q369 -17 369 -274v-74q0 -70 -45.5 -118.5t-106.5 -70.5l-131 -49q-86 -32 -86 -71v-15q0 -50 92 -88l242 -100 q31 -13 58.5 -30t58 -43t49 -63t18.5 -79v-113q0 -125 -69.5 -196.5t-233.5 -77.5v127q69 9 98 41.5t29 89.5v90q0 63 -106 104l-230 99q-35 14 -61.5 30.5t-53.5 42.5t-42 64.5t-15 85.5z" />
<glyph unicode="&#xe0;" horiz-adv-x="1044" d="M113 231v99q0 107 75 177.5t209 70.5h224v-152h-191q-65 0 -96 -33.5t-31 -87.5v-43q0 -57 38 -87t108 -30q97 0 172 37v-149q-100 -49 -220 -49q-143 0 -215.5 70t-72.5 177zM135 725v31q0 134 91.5 205t297.5 71q208 0 297.5 -70.5t89.5 -205.5v-715q0 -41 -39 -41 h-114q-21 0 -30 9.5t-9 31.5v696q0 68 -44.5 104t-154.5 36q-112 0 -157.5 -33.5t-45.5 -100.5v-18q0 -22 -8 -31.5t-28 -9.5h-107q-21 0 -30 9.5t-9 31.5zM306 1439q5 11 26 11h127q34 0 53 -37l121 -219q19 -37 -19 -37h-96q-29 0 -49 25l-156 229q-12 17 -7 28z" />
<glyph unicode="&#xe1;" horiz-adv-x="1044" d="M113 231v99q0 107 75 177.5t209 70.5h224v-152h-191q-65 0 -96 -33.5t-31 -87.5v-43q0 -57 38 -87t108 -30q97 0 172 37v-149q-100 -49 -220 -49q-143 0 -215.5 70t-72.5 177zM135 725v31q0 134 91.5 205t297.5 71q208 0 297.5 -70.5t89.5 -205.5v-715q0 -41 -39 -41 h-114q-21 0 -30 9.5t-9 31.5v696q0 68 -44.5 104t-154.5 36q-112 0 -157.5 -33.5t-45.5 -100.5v-18q0 -22 -8 -31.5t-28 -9.5h-107q-21 0 -30 9.5t-9 31.5zM412 1194l120 219q19 37 54 37h127q21 0 25.5 -11t-7.5 -28l-156 -229q-15 -25 -49 -25h-94q-39 0 -20 37z" />
<glyph unicode="&#xe2;" horiz-adv-x="1044" d="M113 231v99q0 107 75 177.5t209 70.5h224v-152h-191q-65 0 -96 -33.5t-31 -87.5v-43q0 -57 38 -87t108 -30q97 0 172 37v-149q-100 -49 -220 -49q-143 0 -215.5 70t-72.5 177zM135 725v31q0 134 91.5 205t297.5 71q208 0 297.5 -70.5t89.5 -205.5v-715q0 -41 -39 -41 h-114q-21 0 -30 9.5t-9 31.5v696q0 68 -44.5 104t-154.5 36q-112 0 -157.5 -33.5t-45.5 -100.5v-18q0 -22 -8 -31.5t-28 -9.5h-107q-21 0 -30 9.5t-9 31.5zM268.5 1168q-6.5 11 5.5 26l154 217q27 39 61 39h72q35 0 62 -39l153 -217q12 -15 6 -26t-26 -11h-92q-36 0 -54 37 l-84 137l-86 -137q-16 -37 -53 -37h-92q-20 0 -26.5 11z" />
<glyph unicode="&#xe3;" horiz-adv-x="1044" d="M113 231v99q0 107 75 177.5t209 70.5h224v-152h-191q-65 0 -96 -33.5t-31 -87.5v-43q0 -57 38 -87t108 -30q97 0 172 37v-149q-100 -49 -220 -49q-143 0 -215.5 70t-72.5 177zM135 725v31q0 134 91.5 205t297.5 71q208 0 297.5 -70.5t89.5 -205.5v-715q0 -41 -39 -41 h-114q-21 0 -30 9.5t-9 31.5v696q0 68 -44.5 104t-154.5 36q-112 0 -157.5 -33.5t-45.5 -100.5v-18q0 -22 -8 -31.5t-28 -9.5h-107q-21 0 -30 9.5t-9 31.5zM211 1204l4 66q4 82 50 123t112 41q67 0 121 -33l88 -53q7 -4 22 -12.5t23 -13.5t19 -9t18 -4q25 0 32 16t7 61v15 q0 35 43 35h63q36 0 33 -45l-4 -66q-4 -81 -50.5 -122.5t-113.5 -41.5q-66 0 -119 33l-88 53q-7 4 -22 12.5t-23 13.5t-19 9t-18 4q-26 0 -32.5 -15.5t-6.5 -62.5v-14q0 -21 -9.5 -28t-31.5 -7h-65q-36 0 -33 45z" />
<glyph unicode="&#xe4;" horiz-adv-x="1044" d="M113 231v99q0 107 75 177.5t209 70.5h224v-152h-191q-65 0 -96 -33.5t-31 -87.5v-43q0 -57 38 -87t108 -30q97 0 172 37v-149q-100 -49 -220 -49q-143 0 -215.5 70t-72.5 177zM135 725v31q0 134 91.5 205t297.5 71q208 0 297.5 -70.5t89.5 -205.5v-715q0 -41 -39 -41 h-114q-21 0 -30 9.5t-9 31.5v696q0 68 -44.5 104t-154.5 36q-112 0 -157.5 -33.5t-45.5 -100.5v-18q0 -22 -8 -31.5t-28 -9.5h-107q-21 0 -30 9.5t-9 31.5zM326 1208v195q0 21 9 30t30 9h71q20 0 28.5 -8.5t8.5 -30.5v-195q0 -22 -8.5 -30.5t-28.5 -8.5h-71q-21 0 -30 9 t-9 30zM573 1208v195q0 22 8.5 30.5t30.5 8.5h72q20 0 28.5 -8.5t8.5 -30.5v-195q0 -22 -8.5 -30.5t-28.5 -8.5h-72q-22 0 -30.5 8.5t-8.5 30.5z" />
<glyph unicode="&#xe5;" horiz-adv-x="1044" d="M113 231v99q0 107 75 177.5t209 70.5h224v-152h-191q-65 0 -96 -33.5t-31 -87.5v-43q0 -57 38 -87t108 -30q97 0 172 37v-149q-100 -49 -220 -49q-143 0 -215.5 70t-72.5 177zM135 725v31q0 134 91.5 205t297.5 71q208 0 297.5 -70.5t89.5 -205.5v-715q0 -41 -39 -41 h-114q-21 0 -30 9.5t-9 31.5v696q0 68 -44.5 104t-154.5 36q-112 0 -157.5 -33.5t-45.5 -100.5v-18q0 -22 -8 -31.5t-28 -9.5h-107q-21 0 -30 9.5t-9 31.5zM332 1270v67q0 56 37.5 94t109.5 48v-99q-41 -21 -41 -63v-27q0 -45 41 -63v-99q-72 10 -109.5 47.5t-37.5 94.5z M578 1128v99q40 22 40 63v27q0 41 -40 63v99q71 -10 109 -48.5t38 -93.5v-67q0 -56 -38 -94t-109 -48z" />
<glyph unicode="&#xe6;" horiz-adv-x="1611" d="M113 231v86q0 107 75 177.5t209 70.5h224v-133h-191q-65 0 -96 -34t-31 -89v-53q0 -57 38.5 -88t107.5 -31q89 0 186 56q0 -9 1.5 -23.5t13.5 -49t32 -57.5q-140 -79 -281 -79q-143 0 -215.5 69.5t-72.5 177.5zM135 725v33q0 132 92 203t297 71q217 0 287 -108 q87 108 303 108q207 0 298 -73t91 -207v-240q0 -20 -8.5 -28.5t-28.5 -8.5h-458v133h313v135q0 69 -47.5 105.5t-159.5 36.5q-111 0 -158 -36.5t-47 -105.5v-477q0 -68 46.5 -101.5t158.5 -33.5t159.5 35.5t47.5 103.5v27q0 39 37 39h100q21 0 30 -9t9 -30v-35 q0 -133 -88.5 -205.5t-294.5 -72.5q-395 0 -395 272v502q0 131 -199 131q-112 0 -157.5 -34.5t-45.5 -102.5v-27q0 -21 -8 -30t-28 -9h-107q-21 0 -30 9t-9 30z" />
<glyph unicode="&#xe7;" horiz-adv-x="993" d="M123 264v488q0 264 344 278v-160q-81 -7 -115.5 -40t-34.5 -93v-458q0 -61 34 -94t116 -42v-157q-344 14 -344 278zM289 -352q0 37 39 37h202q19 0 31.5 2.5t23.5 13.5t11 31q0 29 -17.5 37t-48.5 8h-135q-36 0 -47.5 11.5t-5.5 37.5l16 68h201q76 0 125 -41t49 -121 q0 -82 -49 -123t-125 -41h-231q-21 0 -30 9t-9 30v41zM565 -14v157q85 7 120.5 40.5t35.5 95.5v40q0 39 39 39h110q39 0 39 -39v-55q0 -261 -344 -278zM565 870v160q344 -17 344 -278v-37q0 -21 -9 -30t-30 -9h-110q-21 0 -30 9t-9 30v22q0 60 -36 93.5t-120 39.5z" />
<glyph unicode="&#xe8;" horiz-adv-x="1013" d="M123 264v488q0 280 395 280q207 0 298 -73t91 -207v-250q0 -37 -37 -37h-458v145h311v133q0 66 -47 102t-158 36t-158 -36t-47 -102v-469q0 -67 46.5 -102t158.5 -35t158.5 35t46.5 102v25q0 39 39 39h100q21 0 30 -9t9 -30v-35q0 -135 -88.5 -207.5t-294.5 -72.5 q-395 0 -395 280zM271.5 1439q4.5 11 25.5 11h127q34 0 53 -37l121 -219q19 -37 -18 -37h-97q-29 0 -49 25l-155 229q-12 17 -7.5 28z" />
<glyph unicode="&#xe9;" horiz-adv-x="1013" d="M123 264v488q0 280 395 280q207 0 298 -73t91 -207v-250q0 -37 -37 -37h-458v145h311v133q0 66 -47 102t-158 36t-158 -36t-47 -102v-469q0 -67 46.5 -102t158.5 -35t158.5 35t46.5 102v25q0 39 39 39h100q21 0 30 -9t9 -30v-35q0 -135 -88.5 -207.5t-294.5 -72.5 q-395 0 -395 280zM420 1194l121 219q19 37 53 37h127q21 0 25.5 -11t-7.5 -28l-155 -229q-15 -25 -49 -25h-95q-39 0 -20 37z" />
<glyph unicode="&#xea;" horiz-adv-x="1013" d="M123 264v488q0 280 395 280q207 0 298 -73t91 -207v-250q0 -37 -37 -37h-458v145h311v133q0 66 -47 102t-158 36t-158 -36t-47 -102v-469q0 -67 46.5 -102t158.5 -35t158.5 35t46.5 102v25q0 39 39 39h100q21 0 30 -9t9 -30v-35q0 -135 -88.5 -207.5t-294.5 -72.5 q-395 0 -395 280zM260.5 1168q-6.5 11 5.5 26l154 217q27 39 61 39h72q34 0 61 -39l154 -217q12 -15 6 -26t-26 -11h-93q-35 0 -53 37l-84 137l-86 -137q-16 -37 -53 -37h-92q-20 0 -26.5 11z" />
<glyph unicode="&#xeb;" horiz-adv-x="1013" d="M123 264v488q0 280 395 280q207 0 298 -73t91 -207v-250q0 -37 -37 -37h-458v145h311v133q0 66 -47 102t-158 36t-158 -36t-47 -102v-469q0 -67 46.5 -102t158.5 -35t158.5 35t46.5 102v25q0 39 39 39h100q21 0 30 -9t9 -30v-35q0 -135 -88.5 -207.5t-294.5 -72.5 q-395 0 -395 280zM317 1208v195q0 21 9 30t30 9h72q20 0 28.5 -8.5t8.5 -30.5v-195q0 -22 -8.5 -30.5t-28.5 -8.5h-72q-21 0 -30 9t-9 30zM565 1208v195q0 22 8.5 30.5t30.5 8.5h72q20 0 28.5 -8.5t8.5 -30.5v-195q0 -22 -8.5 -30.5t-28.5 -8.5h-72q-22 0 -30.5 8.5 t-8.5 30.5z" />
<glyph unicode="&#xec;" horiz-adv-x="485" d="M-15.5 1439q4.5 11 25.5 11h127q34 0 53 -37l121 -219q19 -37 -18 -37h-96q-30 0 -50 25l-155 229q-12 17 -7.5 28zM145 39v936q0 22 8.5 31.5t28.5 9.5h121q20 0 28.5 -9.5t8.5 -31.5v-936q0 -39 -37 -39h-121q-37 0 -37 39z" />
<glyph unicode="&#xed;" horiz-adv-x="485" d="M145 39v936q0 22 8.5 31.5t28.5 9.5h121q20 0 28.5 -9.5t8.5 -31.5v-936q0 -39 -37 -39h-121q-37 0 -37 39zM166 1194l121 219q19 37 53 37h127q21 0 25.5 -11t-7.5 -28l-155 -229q-15 -25 -49 -25h-95q-39 0 -20 37z" />
<glyph unicode="&#xee;" horiz-adv-x="485" d="M-10 1168q-6 11 6 26l154 217q27 39 61 39h72q34 0 61 -39l154 -217q12 -15 5.5 -26t-26.5 -11h-92q-35 0 -53 37l-84 137l-86 -137q-16 -37 -53 -37h-93q-20 0 -26 11zM145 39v936q0 22 8.5 31.5t28.5 9.5h121q20 0 28.5 -9.5t8.5 -31.5v-936q0 -39 -37 -39h-121 q-37 0 -37 39z" />
<glyph unicode="&#xef;" horiz-adv-x="485" d="M47 1208v195q0 21 9 30t30 9h72q20 0 28.5 -8.5t8.5 -30.5v-195q0 -22 -8.5 -30.5t-28.5 -8.5h-72q-21 0 -30 9t-9 30zM145 39v936q0 22 8.5 31.5t28.5 9.5h121q20 0 28.5 -9.5t8.5 -31.5v-936q0 -39 -37 -39h-121q-37 0 -37 39zM295 1208v195q0 22 8.5 30.5t30.5 8.5h72 q20 0 28 -8.5t8 -30.5v-195q0 -22 -8 -30.5t-28 -8.5h-72q-22 0 -30.5 8.5t-8.5 30.5z" />
<glyph unicode="&#xf0;" horiz-adv-x="1148" d="M123 262v492q0 131 72.5 204.5t218.5 73.5q118 0 235 -55v-156q-90 41 -178 41q-154 0 -154 -135v-448q0 -126 166 -140v-153q-183 7 -271.5 80t-88.5 196zM307 1352v59q0 21 9 30t30 9h191q221 0 315 -88l98 49q15 8 30 4.5t24 -18.5l14 -25q20 -30 -17 -49l-90 -45 q21 -47 21 -107v-909q0 -124 -84.5 -196.5t-265.5 -79.5v153q166 14 166 140v856q0 22 -13 45l-117 -52q-17 -9 -29 -6t-22 21l-14 22q-18 32 16 52l127 57q-48 39 -159 39h-191q-39 0 -39 39z" />
<glyph unicode="&#xf1;" horiz-adv-x="1097" d="M145 41v936q0 39 37 39h119q21 0 30 -9t9 -30v-936q0 -22 -8.5 -31.5t-28.5 -9.5h-121q-20 0 -28.5 9.5t-8.5 31.5zM225 1217l4 65q4 82 50 123t112 41q67 0 121 -33l88 -53q7 -4 22 -12.5t23 -13.5t19 -9t18 -4q25 0 32 16t7 62v14q0 35 43 35h63q36 0 33 -45l-4 -66 q-4 -81 -50.5 -122t-113.5 -41q-68 0 -119 32l-88 54q-5 3 -21.5 12.5t-24 13.5t-18.5 8t-18 4q-26 0 -32 -15t-6 -62v-15q0 -21 -9.5 -28t-31.5 -7h-66q-36 0 -33 46zM438 817v164q111 51 238 51q137 0 213 -72.5t76 -189.5v-729q0 -22 -9 -31.5t-30 -9.5h-117 q-39 0 -39 41v682q0 135 -152 135q-99 0 -180 -41z" />
<glyph unicode="&#xf2;" horiz-adv-x="1064" d="M123 264v488q0 124 88.5 197.5t271.5 80.5v-160q-166 -14 -166 -135v-454q0 -124 166 -138v-157q-183 7 -271.5 80t-88.5 198zM285.5 1439q4.5 11 25.5 11h127q35 0 54 -37l120 -219q19 -37 -18 -37h-96q-29 0 -49 25l-156 229q-12 17 -7.5 28zM582 -14v157 q166 14 166 138v454q0 121 -166 135v160q182 -9 271 -82t89 -196v-488q0 -124 -89 -197.5t-271 -80.5z" />
<glyph unicode="&#xf3;" horiz-adv-x="1064" d="M123 264v488q0 124 88.5 197.5t271.5 80.5v-160q-166 -14 -166 -135v-454q0 -124 166 -138v-157q-183 7 -271.5 80t-88.5 198zM451 1194l120 219q19 37 54 37h127q21 0 25.5 -11t-7.5 -28l-156 -229q-15 -25 -49 -25h-94q-39 0 -20 37zM582 -14v157q166 14 166 138v454 q0 121 -166 135v160q182 -9 271 -82t89 -196v-488q0 -124 -89 -197.5t-271 -80.5z" />
<glyph unicode="&#xf4;" horiz-adv-x="1064" d="M123 264v488q0 124 88.5 197.5t271.5 80.5v-160q-166 -14 -166 -135v-454q0 -124 166 -138v-157q-183 7 -271.5 80t-88.5 198zM279 1168q-6 11 6 26l153 217q27 39 62 39h71q35 0 62 -39l153 -217q12 -15 6 -26t-26 -11h-92q-34 0 -53 37l-84 137l-86 -137 q-16 -37 -54 -37h-92q-20 0 -26 11zM582 -14v157q166 14 166 138v454q0 121 -166 135v160q182 -9 271 -82t89 -196v-488q0 -124 -89 -197.5t-271 -80.5z" />
<glyph unicode="&#xf5;" horiz-adv-x="1064" d="M123 264v488q0 124 88.5 197.5t271.5 80.5v-160q-166 -14 -166 -135v-454q0 -124 166 -138v-157q-183 7 -271.5 80t-88.5 198zM217 1204l4 66q4 82 50 123t112 41q67 0 121 -33l88 -53q7 -4 22 -12.5t23 -13.5t19 -9t18 -4q25 0 32 16t7 61v15q0 35 43 35h63q36 0 33 -45 l-4 -66q-4 -81 -50.5 -122.5t-113.5 -41.5q-66 0 -119 33l-88 53q-7 4 -22 12.5t-23 13.5t-19 9t-18 4q-26 0 -32.5 -15.5t-6.5 -62.5v-14q0 -21 -9.5 -28t-31.5 -7h-65q-36 0 -33 45zM582 -14v157q166 14 166 138v454q0 121 -166 135v160q182 -9 271 -82t89 -196v-488 q0 -124 -89 -197.5t-271 -80.5z" />
<glyph unicode="&#xf6;" horiz-adv-x="1064" d="M123 264v488q0 124 88.5 197.5t271.5 80.5v-160q-166 -14 -166 -135v-454q0 -124 166 -138v-157q-183 7 -271.5 80t-88.5 198zM336 1208v195q0 21 9 30t30 9h71q20 0 28.5 -8.5t8.5 -30.5v-195q0 -22 -8.5 -30.5t-28.5 -8.5h-71q-21 0 -30 9t-9 30zM582 -14v157 q166 14 166 138v454q0 121 -166 135v160q182 -9 271 -82t89 -196v-488q0 -124 -89 -197.5t-271 -80.5zM584 1208v195q0 22 8.5 30.5t30.5 8.5h71q20 0 28.5 -8.5t8.5 -30.5v-195q0 -22 -8.5 -30.5t-28.5 -8.5h-71q-22 0 -30.5 8.5t-8.5 30.5z" />
<glyph unicode="&#xf7;" horiz-adv-x="1198" d="M145 592v88q0 21 8.5 29t28.5 8h832q21 0 30 -8t9 -29v-88q0 -21 -9 -30t-30 -9h-830q-21 0 -30 9t-9 30zM500 205v164q0 21 9 30t30 9h123q20 0 28 -9t8 -30v-164q0 -22 -8 -30.5t-28 -8.5h-123q-22 0 -30.5 8.5t-8.5 30.5zM500 909v164q0 21 9 30t30 9h123q20 0 28 -9 t8 -30v-164q0 -22 -8 -30.5t-28 -8.5h-123q-22 0 -30.5 8.5t-8.5 30.5z" />
<glyph unicode="&#xf8;" horiz-adv-x="1064" d="M123 264v488q0 132 100 206t309 74q68 0 123 -8l-75 -154q-25 2 -48 2q-113 0 -164 -34.5t-51 -102.5v-321l-151 -293q-43 58 -43 143zM180 -49q-3 14 6 26l588 1065q1 1 4 6.5t4 7l4 6t4.5 6t4.5 5t6 4.5t6.5 3t7.5 2.5t8 0.5h45q16 0 18.5 -13t-7.5 -28l-588 -1065 q-12 -22 -22 -31t-29 -9h-41q-16 0 -19 14zM406 -6l77 151q26 -2 49 -2q216 0 216 138v327l157 281q37 -49 37 -137v-488q0 -132 -100.5 -206t-309.5 -74q-78 0 -126 10z" />
<glyph unicode="&#xf9;" horiz-adv-x="1085" d="M133 244v731q0 41 39 41h117q21 0 30 -9.5t9 -31.5v-682q0 -67 35 -101t116 -34q97 0 168 35v-162q-96 -47 -225 -47q-138 0 -213.5 71.5t-75.5 188.5zM298 1439q5 11 26 11h127q34 0 53 -37l121 -219q19 -37 -19 -37h-96q-29 0 -49 25l-156 229q-12 17 -7 28zM745 39 v936q0 41 39 41h121q20 0 28.5 -9.5t8.5 -31.5v-936q0 -21 -9 -30t-30 -9h-119q-21 0 -30 9t-9 30z" />
<glyph unicode="&#xfa;" horiz-adv-x="1085" d="M133 244v731q0 41 39 41h117q21 0 30 -9.5t9 -31.5v-682q0 -67 35 -101t116 -34q97 0 168 35v-162q-96 -47 -225 -47q-138 0 -213.5 71.5t-75.5 188.5zM453 1194l120 219q19 37 54 37h127q21 0 25.5 -11t-7.5 -28l-156 -229q-15 -25 -49 -25h-94q-39 0 -20 37zM745 39 v936q0 41 39 41h121q20 0 28.5 -9.5t8.5 -31.5v-936q0 -21 -9 -30t-30 -9h-119q-21 0 -30 9t-9 30z" />
<glyph unicode="&#xfb;" horiz-adv-x="1085" d="M133 244v731q0 41 39 41h117q21 0 30 -9.5t9 -31.5v-682q0 -67 35 -101t116 -34q97 0 168 35v-162q-96 -47 -225 -47q-138 0 -213.5 71.5t-75.5 188.5zM270.5 1168q-6.5 11 5.5 26l154 217q27 39 62 39h71q35 0 62 -39l153 -217q12 -15 6 -26t-26 -11h-92q-36 0 -54 37 l-84 137l-86 -137q-16 -37 -53 -37h-92q-20 0 -26.5 11zM745 39v936q0 41 39 41h121q20 0 28.5 -9.5t8.5 -31.5v-936q0 -21 -9 -30t-30 -9h-119q-21 0 -30 9t-9 30z" />
<glyph unicode="&#xfc;" horiz-adv-x="1085" d="M133 244v731q0 41 39 41h117q21 0 30 -9.5t9 -31.5v-682q0 -67 35 -101t116 -34q97 0 168 35v-162q-96 -47 -225 -47q-138 0 -213.5 71.5t-75.5 188.5zM340 1208v195q0 21 9 30t30 9h72q20 0 28 -8.5t8 -30.5v-195q0 -22 -8 -30.5t-28 -8.5h-72q-21 0 -30 9t-9 30z M588 1208v195q0 22 8.5 30.5t30.5 8.5h71q20 0 28.5 -8.5t8.5 -30.5v-195q0 -22 -8.5 -30.5t-28.5 -8.5h-71q-22 0 -30.5 8.5t-8.5 30.5zM745 39v936q0 41 39 41h121q20 0 28.5 -9.5t8.5 -31.5v-936q0 -21 -9 -30t-30 -9h-119q-21 0 -30 9t-9 30z" />
<glyph unicode="&#xfd;" horiz-adv-x="921" d="M31 975q-6 20 4 30.5t31 10.5h120q32 0 45 -41l181 -547l-95 -287zM260 -379l440 1354q6 22 16 31.5t29 9.5h111q21 0 31 -10.5t4 -30.5l-463 -1354q-12 -39 -43 -39h-88q-46 0 -37 39zM391 1194l121 219q19 37 53 37h127q21 0 26 -11t-7 -28l-156 -229q-15 -25 -49 -25 h-94q-40 0 -21 37z" />
<glyph unicode="&#xfe;" horiz-adv-x="1087" d="M145 -379v1772q0 39 37 39h119q21 0 30 -9t9 -30v-1772q0 -22 -8.5 -30.5t-28.5 -8.5h-121q-20 0 -28.5 8.5t-8.5 30.5zM438 33v157q84 -38 178 -38q154 0 154 137v438q0 135 -154 135q-94 0 -178 -41v158q115 53 236 53q146 0 218.5 -73.5t72.5 -204.5v-494 q0 -129 -72.5 -202.5t-218.5 -73.5q-130 0 -236 49z" />
<glyph unicode="&#xff;" horiz-adv-x="921" d="M31 975q-6 20 4 30.5t31 10.5h120q32 0 45 -41l181 -547l-95 -287zM260 -379l440 1354q6 22 16 31.5t29 9.5h111q21 0 31 -10.5t4 -30.5l-463 -1354q-12 -39 -43 -39h-88q-46 0 -37 39zM270 1208v195q0 21 9 30t30 9h72q20 0 28.5 -8.5t8.5 -30.5v-195q0 -22 -8.5 -30.5 t-28.5 -8.5h-72q-21 0 -30 9t-9 30zM518 1208v195q0 22 8.5 30.5t30.5 8.5h72q20 0 28.5 -8.5t8.5 -30.5v-195q0 -22 -8.5 -30.5t-28.5 -8.5h-72q-22 0 -30.5 8.5t-8.5 30.5z" />
<glyph unicode="&#x152;" horiz-adv-x="1771" d="M145 297v799q0 62 21.5 113.5t68.5 95.5t130 70.5t196 31.5v-166q-108 -7 -161.5 -53.5t-53.5 -124.5v-733q0 -162 215 -180v-164q-113 4 -196 31t-130 70.5t-68.5 95.5t-21.5 114zM659 -14v164q108 9 163 55t55 125v733q0 78 -55.5 124.5t-162.5 53.5v166 q134 -6 218 -61v6q0 22 8 31.5t28 9.5h164v-1393h-164q-20 0 -28 9.5t-8 31.5v10q-85 -59 -218 -65zM1176 0v170h460q22 0 30.5 -8t8.5 -29v-94q0 -22 -8.5 -30.5t-30.5 -8.5h-460zM1176 643v166h401q22 0 31.5 -9t9.5 -30v-88q0 -39 -41 -39h-401zM1176 1223v170h438 q21 0 30 -9t9 -30v-92q0 -21 -9 -30t-30 -9h-438z" />
<glyph unicode="&#x153;" horiz-adv-x="1640" d="M123 262v490q0 124 88.5 197.5t271.5 80.5v-156q-166 -14 -166 -137v-458q0 -126 166 -140v-153q-183 7 -271.5 80t-88.5 196zM582 -14v153q166 15 166 133v465q0 123 -166 137v156q175 -11 252 -98q86 100 309 100q207 0 298 -73t91 -207v-240q0 -20 -8.5 -28.5 t-28.5 -8.5h-459v133h314v135q0 69 -47.5 105.5t-159.5 36.5q-111 0 -158 -36.5t-47 -105.5v-473q0 -68 46.5 -103.5t158.5 -35.5t159.5 35.5t47.5 103.5v27q0 21 8 30t28 9h101q21 0 30 -9t9 -30v-35q0 -133 -88.5 -205.5t-294.5 -72.5q-228 0 -309 100q-71 -90 -252 -98z " />
<glyph unicode="&#x178;" horiz-adv-x="1083" d="M37 1354q-16 39 29 39h141q19 0 29 -9t18 -30l389 -832v-483q0 -39 -37 -39h-125q-21 0 -30 9t-9 30v477zM344 1552v195q0 22 8.5 31.5t28.5 9.5h72q21 0 28.5 -9t7.5 -32v-195q0 -22 -7.5 -30.5t-28.5 -8.5h-72q-20 0 -28.5 8.5t-8.5 30.5zM592 1552v195q0 22 8.5 31.5 t28.5 9.5h71q20 0 28.5 -9.5t8.5 -31.5v-195q0 -22 -8.5 -30.5t-28.5 -8.5h-71q-20 0 -28.5 8.5t-8.5 30.5zM598 846l250 508q7 14 10.5 20t12.5 12.5t22 6.5h125q46 0 26 -39l-350 -703z" />
<glyph unicode="&#x2c6;" horiz-adv-x="716" d="M100.5 1168q-6.5 11 5.5 26l154 217q27 39 62 39h71q35 0 62 -39l153 -217q12 -15 6 -26t-26 -11h-92q-36 0 -54 37l-84 137l-86 -137q-16 -37 -53 -37h-92q-20 0 -26.5 11z" />
<glyph unicode="&#x2dc;" horiz-adv-x="851" d="M106 1204l5 66q4 82 49.5 123t111.5 41q67 0 121 -33l88 -53q7 -4 22 -12.5t23 -13.5t19 -9t18 -4q25 0 32 16t7 61v15q0 35 43 35h64q35 0 32 -45l-4 -66q-4 -81 -50.5 -122.5t-113.5 -41.5q-65 0 -118 33l-88 53q-7 4 -22 12.5t-23 13.5t-19 9t-18 4q-26 0 -32.5 -15.5 t-6.5 -62.5v-14q0 -21 -9.5 -28t-31.5 -7h-66q-36 0 -33 45z" />
<glyph unicode="&#x2000;" horiz-adv-x="910" />
<glyph unicode="&#x2001;" horiz-adv-x="1821" />
<glyph unicode="&#x2002;" horiz-adv-x="910" />
<glyph unicode="&#x2003;" horiz-adv-x="1821" />
<glyph unicode="&#x2004;" horiz-adv-x="607" />
<glyph unicode="&#x2005;" horiz-adv-x="455" />
<glyph unicode="&#x2006;" horiz-adv-x="303" />
<glyph unicode="&#x2007;" horiz-adv-x="303" />
<glyph unicode="&#x2008;" horiz-adv-x="227" />
<glyph unicode="&#x2009;" horiz-adv-x="364" />
<glyph unicode="&#x200a;" horiz-adv-x="101" />
<glyph unicode="&#x2010;" horiz-adv-x="917" d="M145 549v86q0 37 39 37h549q39 0 39 -37v-86q0 -37 -39 -37h-549q-39 0 -39 37z" />
<glyph unicode="&#x2011;" horiz-adv-x="917" d="M145 549v86q0 37 39 37h549q39 0 39 -37v-86q0 -37 -39 -37h-549q-39 0 -39 37z" />
<glyph unicode="&#x2012;" horiz-adv-x="917" d="M145 549v86q0 37 39 37h549q39 0 39 -37v-86q0 -37 -39 -37h-549q-39 0 -39 37z" />
<glyph unicode="&#x2013;" horiz-adv-x="1107" d="M145 549v86q0 37 39 37h740q39 0 39 -37v-86q0 -37 -39 -37h-740q-39 0 -39 37z" />
<glyph unicode="&#x2014;" horiz-adv-x="1740" d="M145 549v86q0 37 39 37h1372q22 0 30.5 -8.5t8.5 -28.5v-86q0 -20 -8.5 -28.5t-30.5 -8.5h-1372q-39 0 -39 37z" />
<glyph unicode="&#x2018;" horiz-adv-x="512" d="M139 1100v141q0 206 242 272q20 5 31 0.5t18 -24.5l29 -84q14 -37 -25 -49q-55 -22 -76.5 -51t-21.5 -74v-131q0 -39 -37 -39h-123q-21 0 -29 9t-8 30z" />
<glyph unicode="&#x2019;" horiz-adv-x="509" d="M51 1169q-14 38 25 50q55 23 76.5 51.5t21.5 72.5v132q0 20 8.5 29t28.5 9h123q21 0 29 -8.5t8 -29.5v-142q0 -206 -242 -272q-20 -5 -31 -0.5t-18 24.5z" />
<glyph unicode="&#x201a;" horiz-adv-x="509" d="M51 -102q-14 37 25 49q55 22 76.5 51t21.5 74v131q0 39 37 39h123q21 0 29 -9t8 -30v-142q0 -206 -242 -272q-21 -5 -31.5 0t-17.5 25z" />
<glyph unicode="&#x201c;" horiz-adv-x="884" d="M139 1100v141q0 206 242 272q20 5 31 0.5t18 -24.5l29 -84q14 -37 -25 -49q-55 -22 -76.5 -51t-21.5 -74v-131q0 -39 -37 -39h-123q-21 0 -29 9t-8 30zM514 1100v141q0 206 242 272q20 5 31 0.5t18 -24.5l29 -84q14 -37 -25 -49q-55 -22 -76.5 -51t-21.5 -74v-131 q0 -39 -37 -39h-123q-21 0 -29 9t-8 30z" />
<glyph unicode="&#x201d;" horiz-adv-x="884" d="M51 1169q-14 38 25 50q55 23 76.5 51.5t21.5 72.5v132q0 20 8.5 29t28.5 9h123q21 0 29 -8.5t8 -29.5v-142q0 -206 -242 -272q-20 -5 -31 -0.5t-18 24.5zM426 1169q-14 38 25 50q55 23 76.5 51.5t21.5 72.5v132q0 20 8.5 29t28.5 9h123q21 0 28.5 -8.5t7.5 -29.5v-142 q0 -206 -241 -272q-20 -5 -31 -0.5t-18 24.5z" />
<glyph unicode="&#x201e;" horiz-adv-x="884" d="M51 -102q-14 37 25 49q55 22 76.5 51t21.5 74v131q0 39 37 39h123q21 0 29 -9t8 -30v-142q0 -206 -242 -272q-21 -5 -31.5 0t-17.5 25zM426 -102q-14 37 25 49q55 22 76.5 51t21.5 74v131q0 39 37 39h123q21 0 28.5 -9t7.5 -30v-142q0 -206 -241 -272q-21 -5 -31.5 0 t-17.5 25z" />
<glyph unicode="&#x2022;" horiz-adv-x="532" d="M168 406v280q0 39 37 39h123q21 0 29 -9t8 -30v-280q0 -22 -8 -30.5t-29 -8.5h-123q-20 0 -28.5 8.5t-8.5 30.5z" />
<glyph unicode="&#x2026;" horiz-adv-x="1490" d="M139 39v164q0 21 9 30t30 9h123q37 0 37 -39v-164q0 -22 -8.5 -30.5t-28.5 -8.5h-123q-22 0 -30.5 8.5t-8.5 30.5zM647 39v164q0 21 9 30t30 9h123q37 0 37 -39v-164q0 -22 -8.5 -30.5t-28.5 -8.5h-123q-22 0 -30.5 8.5t-8.5 30.5zM1153 39v164q0 21 9 30t30 9h123 q37 0 37 -39v-164q0 -22 -8.5 -30.5t-28.5 -8.5h-123q-22 0 -30.5 8.5t-8.5 30.5z" />
<glyph unicode="&#x202f;" horiz-adv-x="364" />
<glyph unicode="&#x2039;" horiz-adv-x="780" d="M160 395v166q0 28 37 53l385 281q15 10 27 1.5t12 -28.5v-125q0 -31 -39 -55zM242 330l143 102l197 -117q39 -23 39 -55v-123q0 -21 -12 -28.5t-27 2.5z" />
<glyph unicode="&#x203a;" horiz-adv-x="780" d="M160 137v123q0 32 39 55l196 117l144 -102l-340 -219q-15 -10 -27 -2.5t-12 28.5zM160 743v125q0 20 12 28.5t27 -1.5l385 -281q37 -25 37 -53v-166l-422 293q-39 24 -39 55z" />
<glyph unicode="&#x205f;" horiz-adv-x="455" />
<glyph unicode="&#x20ac;" horiz-adv-x="1337" d="M156 539v51q0 37 39 37h81v137h-81q-21 0 -30 9t-9 30v51q0 37 39 37h81v203q0 63 20 114.5t64 95.5t125.5 71t194.5 32v-170q-203 -17 -203 -176v-170h271q20 0 29 -8.5t9 -28.5v-51q0 -21 -9 -30t-29 -9h-271v-137h271q20 0 29 -8.5t9 -28.5v-51q0 -21 -9 -30t-29 -9 h-271v-168q0 -161 203 -178v-168q-113 4 -194.5 30.5t-125.5 71t-64 96t-20 115.5v201h-81q-21 0 -30 9t-9 30zM778 -14v168q209 17 209 178v96q0 39 37 39h121q37 0 37 -39v-129q0 -63 -20.5 -115t-65.5 -96.5t-126 -71t-192 -30.5zM778 1237v170q111 -5 192 -32t126 -71 t65.5 -96t20.5 -114v-101q0 -22 -8.5 -31.5t-28.5 -9.5h-121q-20 0 -28.5 9.5t-8.5 31.5v68q0 77 -51.5 123t-157.5 53z" />
<glyph unicode="&#x2122;" horiz-adv-x="1853" d="M168 1286v76q0 17 7 24t26 7h557q19 0 26 -7t7 -24v-76q0 -18 -7 -24.5t-26 -6.5h-557q-19 0 -26 6.5t-7 24.5zM395 590v573h168v-573q0 -33 -31 -33h-104q-33 0 -33 33zM887 590v770q0 18 7.5 25.5t25.5 7.5h122v-803q0 -33 -30 -33h-92q-18 0 -25.5 7.5t-7.5 25.5z M1139 881v319l121 -272l26 -64l25 60l116 270v-326l-61 -153q-12 -31 -43 -31h-72q-29 0 -43 31zM1526 590v803h129q18 0 25.5 -7.5t7.5 -25.5v-770q0 -18 -7.5 -25.5t-25.5 -7.5h-96q-33 0 -33 33z" />
<glyph unicode="&#x25fc;" horiz-adv-x="1013" d="M0 0v1014h1014v-1014h-1014z" />
</font>
</defs>
</svg>
